<?xml version="1.0" encoding="UTF-8" standalone="no"?>
<!-- Created with Inkscape (http://www.inkscape.org/) -->
<svg
   xmlns:dc="http://purl.org/dc/elements/1.1/"
   xmlns:cc="http://web.resource.org/cc/"
   xmlns:rdf="http://www.w3.org/1999/02/22-rdf-syntax-ns#"
   xmlns:svg="http://www.w3.org/2000/svg"
   xmlns="http://www.w3.org/2000/svg"
   xmlns:sodipodi="http://sodipodi.sourceforge.net/DTD/sodipodi-0.dtd"
   xmlns:inkscape="http://www.inkscape.org/namespaces/inkscape"
   width="315"
   height="180"
   id="svg5065"
   sodipodi:version="0.32"
   inkscape:version="0.44"
   version="1.0"
   sodipodi:docbase="/home/ian/oclug"
   sodipodi:docname="business-cards.svg"
   inkscape:export-filename="/home/ian/oclug/business-cards.png"
   inkscape:export-xdpi="82.871094"
   inkscape:export-ydpi="82.871094">
  <defs
     id="defs5067" />
  <sodipodi:namedview
     id="base"
     pagecolor="#ffffff"
     bordercolor="#666666"
     borderopacity="1.0"
     gridtolerance="50"
     guidetolerance="10"
     objecttolerance="10"
     inkscape:pageopacity="0.0"
     inkscape:pageshadow="2"
     inkscape:zoom="2.4"
     inkscape:cx="157.5"
     inkscape:cy="90"
     inkscape:document-units="px"
     inkscape:current-layer="layer1"
     width="3.5in"
     height="2in"
     showguides="true"
     inkscape:guide-bbox="false"
     inkscape:grid-bbox="false"
     inkscape:window-width="1598"
     inkscape:window-height="1165"
     inkscape:window-x="0"
     inkscape:window-y="0"
     units="in" />
  <metadata
     id="metadata5070">
    <rdf:RDF>
      <cc:Work
         rdf:about="">
        <dc:format>image/svg+xml</dc:format>
        <dc:type
           rdf:resource="http://purl.org/dc/dcmitype/StillImage" />
      </cc:Work>
    </rdf:RDF>
  </metadata>
  <g
     inkscape:groupmode="layer"
     id="layer2"
     inkscape:label="crop marks"
     style="display:inline" />
  <g
     inkscape:label="cards"
     inkscape:groupmode="layer"
     id="layer1">
    <g
       id="g9653"
       transform="translate(-71.66667,-20.71119)"
       inkscape:export-filename="/home/ian/oclug/cardproof3.png"
       inkscape:export-xdpi="99.888969"
       inkscape:export-ydpi="99.888969">
      <path
         style="fill:#b3b3b3;fill-opacity:1;fill-rule:evenodd;stroke:none;stroke-width:1px;stroke-linecap:butt;stroke-linejoin:miter;stroke-opacity:1;display:inline"
         d="M 102.14216,146.93793 L 98.241154,143.15704 L 106.04316,140.22989 L 99.825937,116.08092 L 119.69667,121.44736 L 125.18245,111.20234 L 139.5674,127.42362 C 143.24114,129.22317 144.94871,127.07522 144.93127,124.74041 L 137.25117,89.614617 L 149.4418,96.810522 C 150.77607,97.481526 151.8053,97.237031 152.48946,95.956775 L 164.43627,57.415988 L 176.13928,94.981059 C 177.22684,96.523687 178.43077,97.600605 180.16218,96.566599 L 191.62137,89.248724 L 183.81937,125.10628 C 183.65052,127.2767 186.36282,128.89083 189.67087,127.05772 L 203.32438,111.3243 L 208.56634,120.71557 L 228.80279,116.44682 L 222.82938,139.37614 L 230.14375,143.279 L 224.04844,148.52347 L 216.61216,157.18295 L 104.8241,155.96331 L 102.14216,146.93793 z "
         id="path8290"
         sodipodi:nodetypes="cccccccccccccccccccccccccc"
         inkscape:export-filename="/home/ian/oclug/cardproof.png"
         inkscape:export-xdpi="82.871094"
         inkscape:export-ydpi="82.871094" />
      <path
         style="fill:black;fill-opacity:1;stroke:none;stroke-width:1;stroke-miterlimit:4;stroke-dashoffset:0;stroke-opacity:1;display:inline"
         d="M 99.474949,153.03615 L 101.43641,151.49633 L 102.15689,145.23043 L 111.05606,145.23043 L 112.64084,151.32866 L 115.07897,151.32866 L 116.54185,148.7674 L 116.54185,141.5715 L 118.37044,141.5715 L 119.7114,132.18023 L 120.80856,141.5715 L 122.14953,141.5715 L 122.14953,148.40151 L 124.22193,148.40151 L 125.56291,145.35239 L 129.70772,145.35239 L 132.14585,150.10901 L 193.5866,150.10901 L 193.70851,141.5715 L 195.2933,141.5715 L 196.26854,132.30219 L 197.3657,141.5715 L 198.70666,141.5715 L 198.70666,145.59632 L 203.21719,145.59632 L 205.04579,150.23098 L 205.16771,153.03615 L 219.67456,153.03615 L 221.74696,145.71829 L 226.13559,145.71829 L 227.72035,153.03615 L 227.72035,179.93041 L 99.474949,179.93041 L 99.474949,153.03615 z "
         id="path8292"
         sodipodi:nodetypes="cccccccccccccccccccccccccccccccccc"
         inkscape:export-filename="/home/ian/oclug/cardproof.png"
         inkscape:export-xdpi="82.871094"
         inkscape:export-ydpi="82.871094" />
      <path
         style="fill:black;fill-opacity:1;stroke:none;stroke-width:1;stroke-miterlimit:4;stroke-dashoffset:0;stroke-opacity:1;display:inline"
         d="M 158.84331,109.37286 L 162.50051,105.1041 L 163.84148,80.223342 L 165.06054,80.223342 L 166.52341,105.1041 L 170.4244,109.37286 L 170.4244,154.25581 L 158.84331,154.25581 L 158.84331,109.37286 z "
         id="path8294"
         sodipodi:nodetypes="ccccccccc"
         inkscape:export-filename="/home/ian/oclug/cardproof.png"
         inkscape:export-xdpi="82.871094"
         inkscape:export-ydpi="82.871094" />
      <path
         style="fill:black;fill-opacity:1;fill-rule:evenodd;stroke:none;stroke-width:1px;stroke-linecap:butt;stroke-linejoin:miter;stroke-opacity:1;display:inline"
         d="M 163.96338,80.345319 C 164.19353,80.182108 164.98057,79.979426 165.67007,79.979426 C 166.2796,79.979426 166.88914,79.979426 167.49866,79.979426 C 168.18778,79.979426 168.70514,80.217055 169.20535,80.46728 C 169.76133,80.745402 169.99278,80.983145 170.42442,81.199066 C 171.02952,81.501765 171.46953,81.917841 172.0092,82.05282 C 172.58215,82.196126 172.96678,82.29675 173.59398,82.29675 C 174.23009,82.29675 174.85279,82.317296 175.42257,82.174782 C 176.1802,81.985288 176.0321,82.322063 176.0321,83.150497 C 176.0321,83.826847 176.04278,84.449401 175.9102,84.979967 C 175.7773,85.511812 175.9102,86.257976 175.9102,86.809438 C 175.9102,87.440099 176.23867,87.636088 176.39782,88.273008 C 176.55318,88.894729 176.88545,89.222584 176.88545,89.98051 C 176.88545,90.596956 176.28856,90.587172 175.78828,90.712302 C 175.2567,90.845261 174.51089,90.712302 173.95969,90.712302 C 173.27159,90.712302 172.71633,90.57818 172.25301,90.346403 C 171.75626,90.097911 171.08083,89.436356 170.66822,89.126763 C 170.12448,88.718758 169.73127,88.557003 169.08345,88.39497 C 168.51497,88.252791 167.88986,88.273008 167.25485,88.273008 C 166.57252,88.273008 166.07873,88.38423 165.54817,88.51694 C 165.04838,88.641942 164.89931,87.344536 164.81673,86.9314 C 164.68138,86.254323 164.451,85.876355 164.451,85.10193 C 164.451,84.492106 164.451,83.88229 164.451,83.272467 C 164.451,82.664684 164.3227,82.027172 164.20719,81.564958 C 164.07751,81.045989 164.20846,80.958296 163.96338,80.345319 z "
         id="path8296"
         inkscape:export-filename="/home/ian/oclug/cardproof.png"
         inkscape:export-xdpi="82.871094"
         inkscape:export-ydpi="82.871094" />
      <path
         sodipodi:type="arc"
         style="fill:white;fill-opacity:1;stroke:none;stroke-width:1;stroke-miterlimit:4;stroke-dasharray:none;stroke-dashoffset:0;stroke-opacity:1;display:inline"
         id="path8298"
         sodipodi:cx="269.08795"
         sodipodi:cy="353.10947"
         sodipodi:rx="4.6998534"
         sodipodi:ry="4.6998534"
         d="M 273.78781 353.10947 A 4.6998534 4.6998534 0 1 1  264.3881,353.10947 A 4.6998534 4.6998534 0 1 1  273.78781 353.10947 z"
         transform="matrix(0.713304,0,0,0.713644,-27.30749,-136.5844)"
         inkscape:export-filename="/home/ian/oclug/cardproof.png"
         inkscape:export-xdpi="82.871094"
         inkscape:export-ydpi="82.871094" />
      <path
         sodipodi:nodetypes="csssssssssssssssssssssssssssssc"
         id="path8300"
         d="M 154.05283,182.45613 C 153.69276,183.08304 152.50003,184.34995 154.12968,184.7781 C 155.17285,185.05218 155.79899,184.9134 156.44185,184.57561 C 157.29068,184.12958 156.56276,183.87358 157.94507,183.87358 C 159.31935,183.87358 159.40778,185.5219 160.42404,184.45387 C 161.10025,183.74323 159.95209,182.79689 159.46064,182.22644 C 159.09687,181.80419 160.12799,180.78319 160.26999,180.48476 C 160.74818,179.47966 160.83528,178.41955 160.83528,177.04276 C 160.83528,176.42046 161.247,175.11225 161.83692,175.05841 C 162.50801,174.99715 164.08522,175.80097 164.34177,175.86838 C 164.86985,176.00711 163.22374,173.62032 162.993,173.43846 C 162.3786,172.95418 162.16532,171.09132 161.83692,170.40104 C 161.44822,169.58407 160.9247,169.03738 160.48815,168.5786 C 159.78518,167.83983 159.76303,167.35286 159.52475,166.35117 C 159.28499,165.34331 159.14205,164.53152 158.56133,163.92123 C 157.69885,163.01483 157.43696,162.69904 156.83995,162.0716 C 156.2397,161.44079 156.37738,159.79126 156.37738,158.8455 C 156.37738,156.91824 155.40422,159.65392 155.28576,160.27635 C 155.07526,161.38251 155.11516,161.91765 154.79768,162.58494 C 154.37993,163.46302 153.86995,164.26465 153.55164,164.9337 C 153.08325,165.91819 153.00198,166.63684 152.7809,167.56613 C 152.60244,168.31638 152.58823,169.37465 152.58823,170.40104 C 152.58823,171.34188 152.1852,172.03955 151.62483,172.62849 C 151.06017,173.2219 150.55343,174.27289 150.27605,174.85591 C 149.88157,175.68505 149.33097,175.99386 149.11997,176.88084 C 148.85679,177.98717 148.39765,178.7023 148.15657,179.71577 C 147.8139,181.15622 149.28164,180.85859 149.50534,179.91826 C 149.70569,179.076 150.57978,178.06495 150.8541,177.48833 C 151.15771,176.85018 152.14844,176.27437 152.81953,176.09805 C 153.54026,175.90869 153.47479,178.61661 153.47479,179.21623 C 153.47479,180.46453 153.81815,181.22295 154.05283,182.45613 z "
         style="fill:gray;fill-opacity:1;fill-rule:evenodd;stroke:none;stroke-width:1px;stroke-linecap:butt;stroke-linejoin:miter;stroke-opacity:1;display:inline"
         inkscape:export-filename="/home/ian/oclug/cardproof.png"
         inkscape:export-xdpi="82.871094"
         inkscape:export-ydpi="82.871094" />
      <path
         sodipodi:nodetypes="csssssssssssssssssssssssssssssc"
         id="path8302"
         d="M 187.20533,183.69665 C 187.20533,184.73441 185.87536,184.16803 185.02135,184.63211 C 184.27242,185.0391 187.06254,186.07678 187.14085,186.09805 C 188.11925,186.36391 188.9464,185.6598 189.6457,185.46978 C 190.69342,185.18512 191.12792,185.13161 191.57251,186.09805 C 192.1165,187.28055 192.76937,187.70236 193.9484,187.06162 C 193.97786,187.04562 193.1024,184.68235 193.11396,184.63211 C 193.3859,183.44982 193.63142,182.80132 193.88468,181.70025 C 194.13795,180.5992 194.46272,179.75446 194.46272,178.55896 C 194.46272,177.28608 194.35879,176.64114 194.07736,175.41766 C 193.89376,174.61948 193.90217,173.45685 194.07736,172.69522 C 194.09635,172.61266 195.19714,174.36071 196.77489,174.78941 C 197.66703,175.03182 196.03006,172.96092 195.61881,172.06695 C 195.17953,171.11208 194.72249,170.39393 193.692,169.55392 C 192.96743,168.96328 192.42442,168.44095 192.15055,167.25032 C 191.92063,166.25075 192.17624,165.05838 191.95787,164.10903 C 191.69604,162.97072 191.55982,161.6382 190.68594,161.16331 C 189.94166,160.75883 188.75417,160.41759 188.29694,159.92064 C 187.66357,159.23225 186.65506,159.08296 185.79208,159.08296 C 184.5995,159.08296 185.70659,159.16849 186.37013,160.13005 C 186.90633,160.90712 187.47597,161.96226 187.85983,162.7967 C 188.20931,163.55637 187.5262,164.43246 187.5262,165.57495 C 187.5262,166.71131 186.9316,167.28633 186.5628,168.08798 C 186.18429,168.91076 186.05296,169.46684 185.79208,170.60102 C 185.58203,171.51424 185.79208,172.79543 185.79208,173.74231 C 185.79208,174.77959 185.74073,174.95724 185.74073,175.99051 C 185.74073,176.86984 185.33322,177.14723 184.89239,177.83332 C 184.19858,178.91315 183.76626,180.23432 184.25063,180.23432 C 184.79389,180.23432 185.56101,179.20807 185.98475,178.97779 C 187.27101,178.27881 186.67865,179.61793 186.67865,180.77863 C 186.67865,181.90794 187.20533,182.40645 187.20533,183.69665 z "
         style="fill:gray;fill-opacity:1;fill-rule:evenodd;stroke:none;stroke-width:1px;stroke-linecap:butt;stroke-linejoin:miter;stroke-opacity:1;display:inline"
         inkscape:export-filename="/home/ian/oclug/cardproof.png"
         inkscape:export-xdpi="82.871094"
         inkscape:export-ydpi="82.871094" />
      <path
         sodipodi:nodetypes="csssssssssssssssssssssssssssssc"
         id="path8304"
         d="M 208.22746,183.05426 C 208.22746,184.22214 206.57576,185.03709 208.80549,185.03709 C 210.04374,185.03709 210.66653,184.89197 211.31035,184.15583 C 211.79442,183.60233 211.7454,182.16603 211.88838,181.51207 C 212.07201,180.67225 213.62251,181.83229 213.62251,182.83394 C 213.62251,183.42665 212.63634,184.25997 212.46643,185.03709 C 212.11953,186.62372 214.52785,185.07029 214.58592,185.03709 C 215.26511,184.64879 215.19987,183.3307 215.35664,182.61364 C 215.61623,181.42639 216.27014,180.8591 216.51274,179.74956 C 216.73678,178.72486 216.51274,177.27961 216.51274,176.22453 C 216.51274,175.12296 216.51274,174.02141 216.51274,172.91983 C 216.51274,171.31722 217.15007,172.31718 218.51638,172.31718 C 219.31919,172.31718 217.66193,170.46486 217.47614,169.61514 C 217.23254,168.50105 216.48835,167.60444 215.93469,166.97137 C 215.22434,166.15913 214.70621,165.26364 214.39324,164.5479 C 213.911,163.44512 213.38499,162.90318 213.04448,162.12446 C 212.61122,161.13372 211.85657,160.57318 211.11766,160.36196 C 210.0121,160.04593 209.63391,159.88835 208.80549,160.36196 C 208.11893,160.75448 207.7246,161.73219 207.45672,162.34478 C 206.99205,163.40741 206.75288,164.03082 206.10796,164.76823 C 205.5462,165.41056 207.6494,164.32761 208.42013,164.10729 C 209.35478,163.84013 208.42013,166.31041 208.42013,167.412 C 208.42013,168.52599 206.84537,167.59813 206.10796,167.80891 C 205.11005,168.09418 204.86294,167.99532 204.61786,169.11622 C 204.52798,169.52733 207.11175,170.09333 207.40537,170.02618 C 208.0508,169.87859 208.54432,171.00525 208.65143,171.49508 C 208.86681,172.48011 208.91589,173.27682 209.11401,174.183 C 209.27385,174.91403 209.49044,177.00577 209.64071,177.69301 C 209.85075,178.65372 210.15426,179.41435 210.15426,180.41049 C 210.15426,181.41513 209.44037,182.26335 209.19086,182.83394 C 209.0444,183.16888 208.54858,182.98083 208.22746,183.05426 z "
         style="fill:gray;fill-opacity:1;fill-rule:evenodd;stroke:none;stroke-width:1px;stroke-linecap:butt;stroke-linejoin:miter;stroke-opacity:1;display:inline"
         inkscape:export-filename="/home/ian/oclug/cardproof.png"
         inkscape:export-xdpi="82.871094"
         inkscape:export-ydpi="82.871094" />
      <path
         sodipodi:nodetypes="csssssssssssssssssssssssssc"
         id="path8306"
         d="M 197.22524,183.02908 C 196.54287,184.56131 195.8039,184.43381 196.06914,185.62507 C 196.3744,186.99595 198.4592,185.36305 198.49677,185.27866 C 199.00274,184.14253 199.7654,184.00603 200.20541,184.50005 C 200.93931,185.32404 201.66524,185.30291 202.81297,185.62507 C 204.28348,186.03781 203.33542,183.98589 203.19834,183.67808 C 202.74705,182.66469 202.30132,182.94727 202.6203,181.51477 C 202.81686,180.632 203.22025,179.97583 203.77639,179.35144 C 204.37683,178.67729 204.52557,177.93386 204.73979,176.9718 C 204.98151,175.88622 205.20681,175.39152 204.93247,174.15949 C 204.72775,173.24012 204.33611,172.13023 204.16175,171.34717 C 203.92844,170.29946 203.96907,169.34535 203.96907,168.31853 C 203.96907,167.82435 203.00218,166.79638 202.81297,166.37155 C 202.40152,165.4476 202.23494,165.00885 202.23494,163.77555 C 202.23494,162.52461 203.33607,162.91024 204.35442,162.91024 C 205.89537,162.91024 204.60251,161.89077 204.16175,161.39591 C 203.65315,160.82488 202.59648,160.74024 201.84958,160.5306 C 201.04158,160.3038 200.36262,159.89383 199.34472,159.66525 C 198.32161,159.43552 198.00384,160.51289 197.61059,161.39591 C 197.16731,162.39131 197.22524,163.50006 197.22524,164.64089 C 197.22524,165.75809 196.83987,166.72082 196.83987,167.88586 C 196.83987,168.72097 196.19914,169.89807 196.06914,170.48185 C 195.81744,171.61221 195.68379,172.26839 195.68379,173.51048 C 195.68379,174.24073 195.49111,175.49594 195.49111,176.53913 C 195.49111,177.63458 195.40113,177.12025 195.40113,178.35692 C 195.40113,179.57964 196.19959,181.0867 196.55722,181.88976 C 196.74114,182.30275 196.96832,182.66853 197.22524,183.02908 z "
         style="fill:gray;fill-opacity:1;fill-rule:evenodd;stroke:none;stroke-width:1px;stroke-linecap:butt;stroke-linejoin:miter;stroke-opacity:1;display:inline"
         inkscape:export-filename="/home/ian/oclug/cardproof.png"
         inkscape:export-xdpi="82.871094"
         inkscape:export-ydpi="82.871094" />
      <path
         style="fill:gray;fill-opacity:1;fill-rule:evenodd;stroke:none;stroke-width:1px;stroke-linecap:butt;stroke-linejoin:miter;stroke-opacity:1;display:inline"
         d="M 221.48938,183.05502 C 221.48938,184.01027 220.1594,183.48891 219.30542,183.91611 C 218.55647,184.29076 221.3466,185.24593 221.4249,185.26554 C 222.40332,185.51025 223.23046,184.86213 223.92975,184.6872 C 224.97749,184.42515 225.41197,184.37591 225.85656,185.26554 C 226.40055,186.35404 227.05342,186.74231 228.23245,186.15251 C 228.2619,186.13778 227.38645,183.96236 227.39801,183.91611 C 227.66996,182.8278 227.91546,182.23084 228.16872,181.2173 C 228.422,180.20376 228.74677,179.42617 228.74677,178.3257 C 228.74677,177.15402 228.64284,176.56032 228.36141,175.43411 C 228.17782,174.69936 228.18623,173.62915 228.36141,172.92806 C 228.38041,172.85206 229.4812,174.46116 231.05895,174.85578 C 231.95108,175.07892 230.31412,173.17263 229.90287,172.34974 C 229.4636,171.47076 229.00655,170.8097 227.97605,170.03645 C 227.25147,169.49276 226.70848,169.01196 226.4346,167.91595 C 226.20469,166.99585 226.46029,165.89826 226.24192,165.02436 C 225.98009,163.97654 225.84387,162.74994 224.96999,162.3128 C 224.22571,161.94047 223.03822,161.62635 222.58099,161.1689 C 221.94763,160.53524 220.93911,160.39781 220.07614,160.39781 C 218.88355,160.39781 219.99064,160.47654 220.65419,161.36168 C 221.1904,162.07697 221.76003,163.04825 222.14389,163.81634 C 222.49336,164.51565 221.81026,165.32209 221.81026,166.37376 C 221.81026,167.4198 221.21565,167.9491 220.84687,168.68704 C 220.46835,169.44443 220.33701,169.9563 220.07614,171.00033 C 219.86609,171.84095 220.07614,173.02031 220.07614,173.89192 C 220.07614,174.84674 220.02478,175.01026 220.02478,175.96141 C 220.02478,176.77085 219.61728,177.02619 219.17645,177.65775 C 218.48263,178.65174 218.05031,179.86789 218.53469,179.86789 C 219.07795,179.86789 219.84506,178.92321 220.26881,178.71124 C 221.55506,178.06781 220.9627,179.3005 220.9627,180.36894 C 220.9627,181.40849 221.48938,181.86737 221.48938,183.05502 z "
         id="path8308"
         sodipodi:nodetypes="csssssssssssssssssssssssssssssc"
         inkscape:export-filename="/home/ian/oclug/cardproof.png"
         inkscape:export-xdpi="82.871094"
         inkscape:export-ydpi="82.871094" />
      <path
         style="fill:gray;fill-opacity:1;fill-rule:evenodd;stroke:none;stroke-width:1px;stroke-linecap:butt;stroke-linejoin:miter;stroke-opacity:1;display:inline"
         d="M 182.67998,182.74038 C 182.67998,183.92286 184.33167,184.748 182.10194,184.748 C 180.86368,184.748 180.2409,184.60108 179.59709,183.85574 C 179.113,183.29531 179.16204,181.84105 179.01904,181.17892 C 178.83542,180.3286 177.28491,181.50315 177.28491,182.51732 C 177.28491,183.11745 178.27109,183.96116 178.441,184.748 C 178.7879,186.35446 176.37958,184.78162 176.3215,184.748 C 175.64232,184.35485 175.70756,183.02028 175.55078,182.29425 C 175.29119,181.09218 174.63729,180.51778 174.3947,179.39437 C 174.17066,178.35687 174.3947,176.89355 174.3947,175.82529 C 174.3947,174.70995 174.3947,173.59462 174.3947,172.47928 C 174.3947,170.85662 173.75736,171.86908 172.39106,171.86908 C 171.58824,171.86908 173.24551,169.99362 173.4313,169.13326 C 173.67489,168.00525 174.41908,167.09744 174.97275,166.45644 C 175.68309,165.63407 176.20122,164.72737 176.51418,164.00271 C 176.99643,162.88613 177.52242,162.33743 177.86295,161.54896 C 178.2962,160.54582 179.05086,159.97828 179.78976,159.76442 C 180.89533,159.44444 181.27353,159.28489 182.10194,159.76442 C 182.7885,160.16184 183.18283,161.1518 183.45071,161.77203 C 183.91538,162.84794 184.15454,163.47913 184.79946,164.22577 C 185.36123,164.87613 183.25802,163.77963 182.4873,163.55656 C 181.55266,163.28607 182.4873,165.78724 182.4873,166.90259 C 182.4873,168.0305 184.06205,167.09104 184.79946,167.30446 C 185.79738,167.59329 186.04449,167.4932 186.28957,168.62811 C 186.37946,169.04436 183.79568,169.61744 183.50206,169.54946 C 182.85664,169.40001 182.36311,170.54077 182.256,171.03672 C 182.04063,172.03407 181.99154,172.84073 181.79342,173.75824 C 181.63358,174.49841 181.41699,176.61629 181.26673,177.31212 C 181.05668,178.28485 180.75316,179.05498 180.75316,180.06358 C 180.75316,181.08076 181.46706,181.93959 181.71658,182.51732 C 181.86304,182.85644 182.35884,182.66604 182.67998,182.74038 z "
         id="path8310"
         sodipodi:nodetypes="csssssssssssssssssssssssssssssc"
         inkscape:export-filename="/home/ian/oclug/cardproof.png"
         inkscape:export-xdpi="82.871094"
         inkscape:export-ydpi="82.871094" />
      <path
         style="fill:gray;fill-opacity:1;fill-rule:evenodd;stroke:none;stroke-width:1px;stroke-linecap:butt;stroke-linejoin:miter;stroke-opacity:1;display:inline"
         d="M 171.16318,183.3882 C 171.84554,184.90189 172.58452,184.77593 172.31927,185.95278 C 172.01401,187.30707 169.92922,185.69392 169.89164,185.61057 C 169.38567,184.48817 168.62302,184.35332 168.183,184.84136 C 167.4491,185.65538 166.72317,185.63452 165.57543,185.95278 C 164.10494,186.36052 165.05299,184.33343 165.19007,184.02934 C 165.64137,183.02822 166.0871,183.30737 165.76812,181.89221 C 165.57155,181.02013 165.16815,180.3719 164.61203,179.75506 C 164.01159,179.08906 163.86285,178.35463 163.64863,177.40421 C 163.40692,176.33176 163.1816,175.84305 163.45595,174.62593 C 163.66067,173.71768 164.05231,172.62123 164.22667,171.84763 C 164.45997,170.8126 164.41935,169.87004 164.41935,168.85564 C 164.41935,168.36744 165.38623,167.35192 165.57543,166.93222 C 165.98689,166.01946 166.15348,165.58601 166.15348,164.36765 C 166.15348,163.13184 165.05234,163.5128 164.03398,163.5128 C 162.49305,163.5128 163.78591,162.50565 164.22667,162.0168 C 164.73527,161.45267 165.79194,161.36905 166.53883,161.16194 C 167.34684,160.9379 168.0258,160.53288 169.04368,160.30708 C 170.0668,160.08013 170.38457,161.14445 170.77782,162.0168 C 171.22111,163.00015 171.16318,164.09548 171.16318,165.22251 C 171.16318,166.32618 171.54854,167.27727 171.54854,168.42822 C 171.54854,169.25322 172.18929,170.41607 172.31927,170.99279 C 172.57096,172.10946 172.70463,172.75772 172.70463,173.98477 C 172.70463,174.70618 172.89731,175.94622 172.89731,176.97677 C 172.89731,178.05897 172.98728,177.55087 172.98728,178.77256 C 172.98728,179.9805 172.18883,181.46933 171.83119,182.26267 C 171.64728,182.67066 171.42009,183.03201 171.16318,183.3882 z "
         id="path8312"
         sodipodi:nodetypes="csssssssssssssssssssssssssc"
         inkscape:export-filename="/home/ian/oclug/cardproof.png"
         inkscape:export-xdpi="82.871094"
         inkscape:export-ydpi="82.871094" />
      <path
         sodipodi:nodetypes="csssssssssssssssssssssssssc"
         id="path8314"
         d="M 143.10828,182.97801 C 142.42591,184.52878 141.68693,184.39973 141.95218,185.6054 C 142.25744,186.99288 144.34224,185.34022 144.37981,185.25481 C 144.88577,184.10493 145.64844,183.96678 146.08845,184.46677 C 146.82234,185.30073 147.54827,185.27935 148.69601,185.6054 C 150.16651,186.02315 149.21845,183.9464 149.08138,183.63486 C 148.63009,182.6092 148.18436,182.89519 148.50334,181.44537 C 148.69989,180.55193 149.10329,179.88782 149.65942,179.25586 C 150.25986,178.57356 150.4086,177.82114 150.62282,176.84744 C 150.86455,175.74872 151.08985,175.24804 150.81551,174.00109 C 150.61079,173.07059 150.21915,171.94729 150.04479,171.15474 C 149.81148,170.09435 149.85211,169.1287 149.85211,168.08945 C 149.85211,167.58928 148.88522,166.5489 148.69601,166.11891 C 148.28455,165.1838 148.11796,164.73972 148.11796,163.49152 C 148.11796,162.22542 149.21911,162.61572 150.23746,162.61572 C 151.77841,162.61572 150.48555,161.58392 150.04479,161.08308 C 149.53618,160.50514 148.4795,160.41946 147.73261,160.20729 C 146.92461,159.97775 146.24566,159.56282 145.22776,159.33148 C 144.20465,159.09897 143.88689,160.18936 143.49363,161.08308 C 143.05035,162.09051 143.10828,163.21269 143.10828,164.36732 C 143.10828,165.49803 142.7229,166.47242 142.7229,167.65155 C 142.7229,168.49677 142.08217,169.68811 141.95218,170.27895 C 141.70048,171.42299 141.56683,172.08711 141.56683,173.34424 C 141.56683,174.08331 141.37413,175.35373 141.37413,176.40953 C 141.37413,177.51823 141.28417,176.99767 141.28417,178.24931 C 141.28417,179.48684 142.08262,181.01213 142.44026,181.8249 C 142.62418,182.24289 142.85136,182.61309 143.10828,182.97801 z "
         style="fill:gray;fill-opacity:1;fill-rule:evenodd;stroke:none;stroke-width:1px;stroke-linecap:butt;stroke-linejoin:miter;stroke-opacity:1;display:inline"
         inkscape:export-filename="/home/ian/oclug/cardproof.png"
         inkscape:export-xdpi="82.871094"
         inkscape:export-ydpi="82.871094" />
      <path
         style="fill:gray;fill-opacity:1;fill-rule:evenodd;stroke:none;stroke-width:1px;stroke-linecap:butt;stroke-linejoin:miter;stroke-opacity:1;display:inline"
         d="M 131.84935,182.41604 C 131.84935,183.61312 130.19765,184.44844 132.4274,184.44844 C 133.66565,184.44844 134.28843,184.2997 134.93225,183.54515 C 135.41632,182.97781 135.3673,181.50561 135.51029,180.8353 C 135.69392,179.97447 137.24441,181.16353 137.24441,182.19021 C 137.24441,182.79775 136.25825,183.65189 136.08834,184.44844 C 135.74142,186.07474 138.14975,184.48248 138.20783,184.44844 C 138.88702,184.05044 138.82177,182.69939 138.97854,181.96441 C 139.23813,180.74748 139.89203,180.166 140.13464,179.02872 C 140.35868,177.9784 140.13464,176.49701 140.13464,175.41557 C 140.13464,174.28646 140.13464,173.15734 140.13464,172.02824 C 140.13464,170.38555 140.77197,171.41052 142.13828,171.41052 C 142.94109,171.41052 141.28382,169.51189 141.09803,168.64093 C 140.85445,167.49897 140.11026,166.57996 139.55658,165.93106 C 138.84623,165.09853 138.32812,164.18063 138.01514,163.44701 C 137.5329,162.31665 137.0069,161.76116 136.66638,160.96297 C 136.23312,159.94746 135.47847,159.37291 134.73956,159.15641 C 133.634,158.83248 133.25581,158.67096 132.4274,159.15641 C 131.74083,159.55874 131.34649,160.5609 131.07862,161.1888 C 130.61396,162.27799 130.37478,162.91699 129.72987,163.67284 C 129.1681,164.33122 131.2713,163.2212 132.04203,162.99538 C 132.97668,162.72152 132.04203,165.25358 132.04203,166.38271 C 132.04203,167.52454 130.46727,166.57348 129.72987,166.78955 C 128.73196,167.08194 128.48485,166.98061 128.23977,168.12953 C 128.14988,168.55092 130.73365,169.13108 131.02728,169.06226 C 131.6727,168.91095 132.16623,170.0658 132.27333,170.56787 C 132.4887,171.57753 132.53779,172.39416 132.73591,173.32299 C 132.89574,174.07229 133.11233,176.21635 133.2626,176.92075 C 133.47265,177.90547 133.77616,178.68513 133.77616,179.70619 C 133.77616,180.73593 133.06227,181.60537 132.81275,182.19021 C 132.6663,182.53352 132.17048,182.34077 131.84935,182.41604 z "
         id="path8316"
         sodipodi:nodetypes="csssssssssssssssssssssssssssssc"
         inkscape:export-filename="/home/ian/oclug/cardproof.png"
         inkscape:export-xdpi="82.871094"
         inkscape:export-ydpi="82.871094" />
      <path
         style="fill:gray;fill-opacity:1;fill-rule:evenodd;stroke:none;stroke-width:1px;stroke-linecap:butt;stroke-linejoin:miter;stroke-opacity:1;display:inline"
         d="M 127.4898,182.13789 C 127.4898,183.22277 128.81978,182.63067 129.67378,183.11584 C 130.42271,183.54132 127.63259,184.62611 127.55428,184.64835 C 126.57587,184.92627 125.74872,184.19021 125.04944,183.99156 C 124.00171,183.69395 123.56721,183.63803 123.12262,184.64835 C 122.57864,185.88456 121.92576,186.32553 120.74673,185.6557 C 120.71728,185.63896 121.59273,183.16835 121.58117,183.11584 C 121.30923,181.87983 121.06372,181.20187 120.81046,180.0508 C 120.55719,178.89972 120.23241,178.01663 120.23241,176.76682 C 120.23241,175.43614 120.33635,174.76189 120.61778,173.48285 C 120.80137,172.6484 120.79296,171.43297 120.61778,170.63675 C 120.59878,170.55045 119.49798,172.37789 117.92024,172.82606 C 117.02811,173.07948 118.66506,170.9145 119.07633,169.97994 C 119.51559,168.98169 119.97263,168.23094 121.00314,167.35276 C 121.72771,166.73529 122.27071,166.18925 122.54459,164.94451 C 122.7745,163.89955 122.51889,162.65303 122.73726,161.66055 C 122.99909,160.47054 123.13531,159.0775 124.00919,158.58103 C 124.75348,158.15819 125.94096,157.80144 126.39819,157.28192 C 127.03155,156.56226 128.04007,156.40619 128.90306,156.40619 C 130.09564,156.40619 128.98854,156.4956 128.325,157.50085 C 127.7888,158.3132 127.21916,159.41628 126.8353,160.28862 C 126.48583,161.0828 127.16892,161.99869 127.16892,163.19306 C 127.16892,164.38104 127.76354,164.98217 128.13233,165.82025 C 128.51083,166.68039 128.64217,167.26173 128.90306,168.44743 C 129.1131,169.40212 128.90306,170.7415 128.90306,171.7314 C 128.90306,172.81578 128.9544,173.00148 128.9544,174.08171 C 128.9544,175.00098 129.3619,175.29098 129.80274,176.00823 C 130.49655,177.1371 130.92887,178.51826 130.4445,178.51826 C 129.90124,178.51826 129.13413,177.44542 128.71038,177.20468 C 127.42412,176.47393 128.01649,177.8739 128.01649,179.08732 C 128.01649,180.26792 127.4898,180.78908 127.4898,182.13789 z "
         id="path8318"
         sodipodi:nodetypes="csssssssssssssssssssssssssssssc"
         inkscape:export-filename="/home/ian/oclug/cardproof.png"
         inkscape:export-xdpi="82.871094"
         inkscape:export-ydpi="82.871094" />
      <path
         style="fill:gray;fill-opacity:1;fill-rule:evenodd;stroke:none;stroke-width:1px;stroke-linecap:butt;stroke-linejoin:miter;stroke-opacity:1;display:inline"
         d="M 110.90459,182.2524 C 110.54453,182.90189 109.35178,184.21442 110.98144,184.65799 C 112.02461,184.94193 112.65075,184.79818 113.29361,184.44821 C 114.14244,183.98611 113.41452,183.72091 114.79683,183.72091 C 116.17112,183.72091 116.25955,185.42856 117.27581,184.32209 C 117.95202,183.58585 116.80386,182.60544 116.31241,182.01445 C 115.94864,181.577 116.97975,180.51925 117.12174,180.21005 C 117.59995,179.16878 117.68705,178.0705 117.68705,176.64414 C 117.68705,175.99943 118.09875,174.64412 118.68869,174.58834 C 119.35977,174.52489 120.93699,175.35764 121.19354,175.42748 C 121.72161,175.57121 120.07551,173.09848 119.84476,172.91006 C 119.23036,172.40836 119.01709,170.47842 118.68869,169.76329 C 118.29999,168.9169 117.77647,168.35054 117.33991,167.87523 C 116.63694,167.10986 116.6148,166.60536 116.37651,165.5676 C 116.13676,164.52346 115.99382,163.68244 115.4131,163.05018 C 114.55062,162.11114 114.28873,161.78398 113.69172,161.13396 C 113.09146,160.48041 113.22913,158.7715 113.22913,157.7917 C 113.22913,155.79505 112.25598,158.62924 112.13752,159.27407 C 111.92702,160.42005 111.96693,160.97445 111.64944,161.66578 C 111.23169,162.57547 110.72171,163.40595 110.4034,164.09911 C 109.93501,165.11902 109.85374,165.86357 109.63267,166.82631 C 109.4542,167.60357 109.43999,168.69995 109.43999,169.76329 C 109.43999,170.73798 109.03696,171.4608 108.47659,172.07093 C 107.91193,172.68571 107.4052,173.77454 107.12782,174.37856 C 106.73334,175.23755 106.18273,175.55746 105.97173,176.4764 C 105.70855,177.62255 105.24941,178.36343 105.00833,179.41338 C 104.66566,180.9057 106.1334,180.59736 106.35709,179.62316 C 106.55745,178.75059 107.43153,177.70313 107.70586,177.10575 C 108.00948,176.44464 109.0002,175.84809 109.67129,175.66541 C 110.392,175.46923 110.32656,178.27466 110.32656,178.89585 C 110.32656,180.18909 110.66991,180.97484 110.90459,182.2524 z "
         id="path8320"
         sodipodi:nodetypes="csssssssssssssssssssssssssssssc"
         inkscape:export-filename="/home/ian/oclug/cardproof.png"
         inkscape:export-xdpi="82.871094"
         inkscape:export-ydpi="82.871094" />
      <path
         sodipodi:nodetypes="csssssssssssssssssssssssssssssc"
         id="path8322"
         d="M 105.84026,181.6622 C 105.84026,182.84467 107.71723,183.6698 105.18337,183.6698 C 103.77624,183.6698 103.06851,183.52289 102.33688,182.77754 C 101.78677,182.21713 101.84249,180.76287 101.68001,180.10072 C 101.47133,179.25041 99.709355,180.42496 99.709355,181.43913 C 99.709355,182.03925 100.83003,182.88298 101.02311,183.6698 C 101.41733,185.27628 98.680542,183.70344 98.614548,183.6698 C 97.842717,183.27666 97.916872,181.94209 97.73871,181.21606 C 97.443709,180.01398 96.700625,179.43958 96.42494,178.31618 C 96.170334,177.27868 96.42494,175.81536 96.42494,174.74709 C 96.42494,173.63176 96.42494,172.51643 96.42494,171.40108 C 96.42494,169.77842 95.700667,170.79089 94.148018,170.79089 C 93.235702,170.79089 95.119017,168.91543 95.330141,168.05508 C 95.606959,166.92706 96.452638,166.01925 97.081829,165.37826 C 97.88906,164.55588 98.477857,163.64917 98.83351,162.92452 C 99.381528,161.80794 99.979261,161.25922 100.36623,160.47077 C 100.85856,159.46764 101.71616,158.90009 102.55583,158.68624 C 103.81219,158.36626 104.24197,158.2067 105.18337,158.68624 C 105.96358,159.08366 106.41169,160.07359 106.7161,160.69384 C 107.24416,161.76975 107.51594,162.40096 108.24882,163.1476 C 108.88721,163.79793 106.49714,162.70144 105.6213,162.47837 C 104.55918,162.20787 105.6213,164.70905 105.6213,165.8244 C 105.6213,166.95232 107.41082,166.01285 108.24882,166.22627 C 109.38283,166.5151 109.66365,166.41502 109.94215,167.54992 C 110.04429,167.96617 107.10813,168.53925 106.77446,168.47126 C 106.04101,168.32183 105.48016,169.46257 105.35845,169.95853 C 105.1137,170.95587 105.05793,171.76253 104.83278,172.68004 C 104.65114,173.42022 104.40501,175.5381 104.23426,176.23393 C 103.99555,177.20665 103.65065,177.97679 103.65065,178.98539 C 103.65065,180.00257 104.46191,180.8614 104.74546,181.43913 C 104.91189,181.77825 105.47533,181.58785 105.84026,181.6622 z "
         style="fill:gray;fill-opacity:1;fill-rule:evenodd;stroke:none;stroke-width:1px;stroke-linecap:butt;stroke-linejoin:miter;stroke-opacity:1;display:inline"
         inkscape:export-filename="/home/ian/oclug/cardproof.png"
         inkscape:export-xdpi="82.871094"
         inkscape:export-ydpi="82.871094" />
    </g>
    <text
       inkscape:export-ydpi="99.888969"
       inkscape:export-xdpi="99.888969"
       inkscape:export-filename="/home/ian/oclug/cardproof3.png"
       sodipodi:linespacing="125%"
       transform="scale(0.955185,1.046918)"
       id="text8324"
       y="26.310129"
       x="18.902105"
       style="font-size:15.8113203px;font-style:normal;font-variant:normal;font-weight:bold;font-stretch:normal;text-align:start;line-height:125%;writing-mode:lr-tb;text-anchor:start;fill:black;fill-opacity:1;stroke:none;stroke-width:1px;stroke-linecap:butt;stroke-linejoin:miter;stroke-opacity:1;display:inline;font-family:Bitstream Vera Sans"
       xml:space="preserve"><tspan
         y="26.310129"
         x="18.902105"
         id="tspan8326"
         sodipodi:role="line"
         style="font-size:15.00001431px">Ottawa Canada Linux Users Group</tspan></text>
    <text
       xml:space="preserve"
       style="font-size:12.01048756px;font-style:normal;font-weight:normal;fill:black;fill-opacity:1;stroke:none;stroke-width:1px;stroke-linecap:butt;stroke-linejoin:miter;stroke-opacity:1;font-family:Newspaper"
       x="180.98518"
       y="60.27578"
       id="text8332"
       inkscape:export-filename="/home/ian/oclug/cardproof3.png"
       inkscape:export-xdpi="99.888969"
       inkscape:export-ydpi="99.888969"
       transform="scale(0.999761,1.000239)"><tspan
         sodipodi:role="line"
         x="180.98518"
         y="60.27578"
         id="tspan8334"
         style="font-size:11.00961399px;font-family:Bitstream Charter">Promoting Linux and </tspan><tspan
         sodipodi:role="line"
         x="180.98518"
         y="74.037797"
         id="tspan8336"
         style="font-size:11.00961399px;font-family:Bitstream Charter">Open Source Software </tspan><tspan
         sodipodi:role="line"
         x="180.98518"
         y="87.799815"
         style="font-size:11.00961399px;font-family:Bitstream Charter"
         id="tspan8338">in Ottawa since 1996</tspan></text>
    <text
       id="text8340"
       y="113.37596"
       x="180.98518"
       style="font-size:12.01048756px;font-style:normal;font-weight:normal;fill:black;fill-opacity:1;stroke:none;stroke-width:1px;stroke-linecap:butt;stroke-linejoin:miter;stroke-opacity:1;font-family:Newspaper"
       xml:space="preserve"
       inkscape:export-filename="/home/ian/oclug/cardproof3.png"
       inkscape:export-xdpi="99.888969"
       inkscape:export-ydpi="99.888969"
       transform="scale(0.999761,1.000239)"><tspan
         style="font-size:11.00961399px;font-family:Bitstream Charter"
         id="tspan8342"
         y="113.37596"
         x="180.98518"
         sodipodi:role="line">• Free public meetings</tspan><tspan
         style="font-size:11.00961399px;font-family:Bitstream Charter"
         y="127.13798"
         x="180.98518"
         sodipodi:role="line"
         id="tspan8344">• Helpful mailing lists</tspan><tspan
         style="font-size:11.00961399px;font-family:Bitstream Charter"
         y="140.9"
         x="180.98518"
         sodipodi:role="line"
         id="tspan8346">• Technical tutorials</tspan></text>
    <text
       xml:space="preserve"
       style="font-size:12.01048756px;font-style:normal;font-weight:normal;fill:black;fill-opacity:1;stroke:none;stroke-width:1px;stroke-linecap:butt;stroke-linejoin:miter;stroke-opacity:1;font-family:Newspaper"
       x="180.98518"
       y="163.71783"
       id="text8348"
       inkscape:export-filename="/home/ian/oclug/cardproof3.png"
       inkscape:export-xdpi="99.888969"
       inkscape:export-ydpi="99.888969"
       transform="scale(0.999761,1.000239)"><tspan
         id="tspan8350"
         sodipodi:role="line"
         x="180.98518"
         y="163.71783"
         style="font-size:11.00961399px;font-family:Bitstream Charter">www.oclug.on.ca</tspan></text>
  </g>
</svg>
