<?xml version="1.0" encoding="UTF-8" standalone="no"?>
<!-- Created with Inkscape (http://www.inkscape.org/) -->
<svg
   xmlns:dc="http://purl.org/dc/elements/1.1/"
   xmlns:cc="http://creativecommons.org/ns#"
   xmlns:rdf="http://www.w3.org/1999/02/22-rdf-syntax-ns#"
   xmlns:svg="http://www.w3.org/2000/svg"
   xmlns="http://www.w3.org/2000/svg"
   xmlns:xlink="http://www.w3.org/1999/xlink"
   xmlns:sodipodi="http://sodipodi.sourceforge.net/DTD/sodipodi-0.dtd"
   xmlns:inkscape="http://www.inkscape.org/namespaces/inkscape"
   width="204.45322"
   height="235.08789"
   id="svg2"
   sodipodi:version="0.32"
   inkscape:version="0.46"
   sodipodi:docbase="/home/ttidman/Desktop"
   sodipodi:docname="oclug-logo.svg"
   inkscape:output_extension="org.inkscape.output.svg.inkscape"
   version="1.0">
  <defs
     id="defs4">
    <inkscape:perspective
       sodipodi:type="inkscape:persp3d"
       inkscape:vp_x="0 : 117.54395 : 1"
       inkscape:vp_y="0 : 1000 : 0"
       inkscape:vp_z="204.45322 : 117.54395 : 1"
       inkscape:persp3d-origin="102.22661 : 78.36263 : 1"
       id="perspective122" />
    <linearGradient
       id="linearGradient10263">
      <stop
         style="stop-color:#999;stop-opacity:1;"
         offset="0"
         id="stop10265" />
      <stop
         id="stop10271"
         offset="0.60000002"
         style="stop-color:#666;stop-opacity:1;" />
      <stop
         style="stop-color:black;stop-opacity:1;"
         offset="1"
         id="stop10267" />
    </linearGradient>
    <linearGradient
       id="linearGradient3999">
      <stop
         style="stop-color:#000000;stop-opacity:0.50196081;"
         offset="0"
         id="stop4001" />
      <stop
         style="stop-color:#000000;stop-opacity:0;"
         offset="1"
         id="stop4003" />
    </linearGradient>
    <linearGradient
       id="20"
       x1="136.821"
       y1="108.931"
       x2="203.25101"
       y2="108.931"
       gradientUnits="userSpaceOnUse">
      <stop
         offset="0"
         style="stop-color:#a86a00"
         id="stop1804" />
      <stop
         offset="0.415"
         style="stop-color:#663200"
         id="stop1806" />
      <stop
         offset="1"
         style="stop-color:#663200"
         id="stop1808" />
    </linearGradient>
    <linearGradient
       id="19"
       x1="136.87"
       y1="108.933"
       x2="203.284"
       y2="108.933"
       gradientUnits="userSpaceOnUse">
      <stop
         offset="0"
         style="stop-color:#ac6e00"
         id="stop1793" />
      <stop
         offset="0.415"
         style="stop-color:#6d3a00"
         id="stop1795" />
      <stop
         offset="1"
         style="stop-color:#6d3a00"
         id="stop1797" />
    </linearGradient>
    <linearGradient
       id="18"
       x1="136.918"
       y1="108.934"
       x2="203.319"
       y2="108.934"
       gradientUnits="userSpaceOnUse">
      <stop
         offset="0"
         style="stop-color:#b07300"
         id="stop1782" />
      <stop
         offset="0.415"
         style="stop-color:#754200"
         id="stop1784" />
      <stop
         offset="1"
         style="stop-color:#754200"
         id="stop1786" />
    </linearGradient>
    <linearGradient
       id="17"
       x1="136.967"
       y1="108.936"
       x2="203.353"
       y2="108.936"
       gradientUnits="userSpaceOnUse">
      <stop
         offset="0"
         style="stop-color:#b57800"
         id="stop1771" />
      <stop
         offset="0.415"
         style="stop-color:#7c4900"
         id="stop1773" />
      <stop
         offset="1"
         style="stop-color:#7c4900"
         id="stop1775" />
    </linearGradient>
    <linearGradient
       id="16"
       x1="137.015"
       y1="108.938"
       x2="203.38901"
       y2="108.938"
       gradientUnits="userSpaceOnUse">
      <stop
         offset="0"
         style="stop-color:#b97d00"
         id="stop1760" />
      <stop
         offset="0.415"
         style="stop-color:#845100"
         id="stop1762" />
      <stop
         offset="1"
         style="stop-color:#845100"
         id="stop1764" />
    </linearGradient>
    <linearGradient
       id="15"
       x1="137.063"
       y1="108.94"
       x2="203.425"
       y2="108.94"
       gradientUnits="userSpaceOnUse">
      <stop
         offset="0"
         style="stop-color:#bd8200"
         id="stop1749" />
      <stop
         offset="0.415"
         style="stop-color:#8c5900"
         id="stop1751" />
      <stop
         offset="1"
         style="stop-color:#8c5900"
         id="stop1753" />
    </linearGradient>
    <linearGradient
       id="14"
       x1="137.112"
       y1="108.942"
       x2="203.461"
       y2="108.942"
       gradientUnits="userSpaceOnUse">
      <stop
         offset="0"
         style="stop-color:#c28700"
         id="stop1738" />
      <stop
         offset="0.415"
         style="stop-color:#936000"
         id="stop1740" />
      <stop
         offset="1"
         style="stop-color:#936000"
         id="stop1742" />
    </linearGradient>
    <linearGradient
       id="13"
       x1="137.16"
       y1="108.944"
       x2="203.49899"
       y2="108.944"
       gradientUnits="userSpaceOnUse">
      <stop
         offset="0"
         style="stop-color:#c68c00"
         id="stop1727" />
      <stop
         offset="0.415"
         style="stop-color:#9b6800"
         id="stop1729" />
      <stop
         offset="1"
         style="stop-color:#9b6800"
         id="stop1731" />
    </linearGradient>
    <linearGradient
       id="12"
       x1="137.209"
       y1="108.947"
       x2="203.537"
       y2="108.947"
       gradientUnits="userSpaceOnUse">
      <stop
         offset="0"
         style="stop-color:#ca9100"
         id="stop1716" />
      <stop
         offset="0.415"
         style="stop-color:#a37000"
         id="stop1718" />
      <stop
         offset="1"
         style="stop-color:#a37000"
         id="stop1720" />
    </linearGradient>
    <linearGradient
       id="11"
       x1="137.257"
       y1="108.949"
       x2="203.576"
       y2="108.949"
       gradientUnits="userSpaceOnUse">
      <stop
         offset="0"
         style="stop-color:#cf9600"
         id="stop1705" />
      <stop
         offset="0.415"
         style="stop-color:#aa7700"
         id="stop1707" />
      <stop
         offset="1"
         style="stop-color:#aa7700"
         id="stop1709" />
    </linearGradient>
    <linearGradient
       id="10"
       x1="137.306"
       y1="108.953"
       x2="203.61501"
       y2="108.953"
       gradientUnits="userSpaceOnUse">
      <stop
         offset="0"
         style="stop-color:#d39b00"
         id="stop1694" />
      <stop
         offset="0.415"
         style="stop-color:#b27f00"
         id="stop1696" />
      <stop
         offset="1"
         style="stop-color:#b27f00"
         id="stop1698" />
    </linearGradient>
    <linearGradient
       id="9"
       x1="137.354"
       y1="108.956"
       x2="203.655"
       y2="108.956"
       gradientUnits="userSpaceOnUse">
      <stop
         offset="0"
         style="stop-color:#d79f00"
         id="stop1683" />
      <stop
         offset="0.415"
         style="stop-color:#ba8700"
         id="stop1685" />
      <stop
         offset="1"
         style="stop-color:#ba8700"
         id="stop1687" />
    </linearGradient>
    <linearGradient
       id="8"
       x1="137.403"
       y1="108.96"
       x2="203.696"
       y2="108.96"
       gradientUnits="userSpaceOnUse">
      <stop
         offset="0"
         style="stop-color:#dca400"
         id="stop1672" />
      <stop
         offset="0.415"
         style="stop-color:#c18e00"
         id="stop1674" />
      <stop
         offset="1"
         style="stop-color:#c18e00"
         id="stop1676" />
    </linearGradient>
    <linearGradient
       id="7"
       x1="137.451"
       y1="108.964"
       x2="203.737"
       y2="108.964"
       gradientUnits="userSpaceOnUse">
      <stop
         offset="0"
         style="stop-color:#e0a900"
         id="stop1661" />
      <stop
         offset="0.415"
         style="stop-color:#c99600"
         id="stop1663" />
      <stop
         offset="1"
         style="stop-color:#c99600"
         id="stop1665" />
    </linearGradient>
    <linearGradient
       id="6"
       x1="137.49899"
       y1="108.968"
       x2="203.77901"
       y2="108.968"
       gradientUnits="userSpaceOnUse">
      <stop
         offset="0"
         style="stop-color:#e4ae00"
         id="stop1650" />
      <stop
         offset="0.415"
         style="stop-color:#d19e00"
         id="stop1652" />
      <stop
         offset="1"
         style="stop-color:#d19e00"
         id="stop1654" />
    </linearGradient>
    <linearGradient
       id="5"
       x1="137.548"
       y1="108.973"
       x2="203.82201"
       y2="108.973"
       gradientUnits="userSpaceOnUse">
      <stop
         offset="0"
         style="stop-color:#e9b300"
         id="stop1639" />
      <stop
         offset="0.415"
         style="stop-color:#d8a500"
         id="stop1641" />
      <stop
         offset="1"
         style="stop-color:#d8a500"
         id="stop1643" />
    </linearGradient>
    <linearGradient
       id="4"
       x1="137.59599"
       y1="108.978"
       x2="203.86501"
       y2="108.978"
       gradientUnits="userSpaceOnUse">
      <stop
         offset="0"
         style="stop-color:#edb800"
         id="stop1628" />
      <stop
         offset="0.415"
         style="stop-color:#e0ad00"
         id="stop1630" />
      <stop
         offset="1"
         style="stop-color:#e0ad00"
         id="stop1632" />
    </linearGradient>
    <linearGradient
       id="3"
       x1="137.645"
       y1="108.983"
       x2="203.909"
       y2="108.983"
       gradientUnits="userSpaceOnUse">
      <stop
         offset="0"
         style="stop-color:#f1bd00"
         id="stop1617" />
      <stop
         offset="0.415"
         style="stop-color:#e8b500"
         id="stop1619" />
      <stop
         offset="1"
         style="stop-color:#e8b500"
         id="stop1621" />
    </linearGradient>
    <linearGradient
       id="2"
       x1="137.69299"
       y1="108.988"
       x2="203.953"
       y2="108.988"
       gradientUnits="userSpaceOnUse">
      <stop
         offset="0"
         style="stop-color:#f6c200"
         id="stop1606" />
      <stop
         offset="0.415"
         style="stop-color:#efbc00"
         id="stop1608" />
      <stop
         offset="1"
         style="stop-color:#efbc00"
         id="stop1610" />
    </linearGradient>
    <linearGradient
       id="1"
       x1="137.742"
       y1="108.994"
       x2="203.998"
       y2="108.994"
       gradientUnits="userSpaceOnUse">
      <stop
         offset="0"
         style="stop-color:#fac700"
         id="stop1595" />
      <stop
         offset="0.415"
         style="stop-color:#f7c400"
         id="stop1597" />
      <stop
         offset="1"
         style="stop-color:#f7c400"
         id="stop1599" />
    </linearGradient>
    <linearGradient
       inkscape:collect="always"
       xlink:href="#3"
       id="linearGradient4901"
       gradientUnits="userSpaceOnUse"
       x1="137.645"
       y1="108.983"
       x2="203.909"
       y2="108.983" />
  </defs>
  <sodipodi:namedview
     id="base"
     pagecolor="#ffffff"
     bordercolor="#666666"
     borderopacity="1.0"
     gridtolerance="10000"
     guidetolerance="10"
     objecttolerance="10"
     inkscape:pageopacity="0.0"
     inkscape:pageshadow="2"
     inkscape:zoom="2.3140282"
     inkscape:cx="102.22661"
     inkscape:cy="117.54395"
     inkscape:document-units="px"
     inkscape:current-layer="layer2"
     inkscape:window-width="1024"
     inkscape:window-height="768"
     inkscape:window-x="2"
     inkscape:window-y="25"
     showguides="true"
     inkscape:guide-bbox="true"
     showgrid="false" />
  <metadata
     id="metadata7">
    <rdf:RDF>
      <cc:Work
         rdf:about="">
        <dc:format>image/svg+xml</dc:format>
        <dc:type
           rdf:resource="http://purl.org/dc/dcmitype/StillImage" />
        <dc:contributor>
          <cc:Agent>
            <dc:title />
          </cc:Agent>
        </dc:contributor>
        <cc:license
           rdf:resource="" />
        <dc:creator>
          <cc:Agent>
            <dc:title>Ian Ward</dc:title>
          </cc:Agent>
        </dc:creator>
        <dc:description>based on oclug.png bitmap by unknown author</dc:description>
        <dc:title>OCLUG logo</dc:title>
        <dc:date>2007</dc:date>
      </cc:Work>
    </rdf:RDF>
  </metadata>
  <g
     inkscape:groupmode="layer"
     id="layer1"
     inkscape:label="box"
     transform="translate(-240.41566,-253.8625)" />
  <g
     inkscape:groupmode="layer"
     id="layer7"
     inkscape:label="leaf"
     style="display:inline"
     transform="translate(-240.41566,-253.8625)" />
  <g
     inkscape:groupmode="layer"
     id="layer6"
     inkscape:label="bldg"
     style="display:inline"
     transform="translate(-240.41566,-253.8625)" />
  <g
     inkscape:groupmode="layer"
     id="layer8"
     inkscape:label="1st row"
     style="display:inline"
     transform="translate(-240.41566,-253.8625)" />
  <g
     inkscape:groupmode="layer"
     id="layer2"
     inkscape:label="text"
     style="display:inline"
     transform="translate(-240.41566,-253.8625)">
    <rect
       style="fill:#ffffff;fill-opacity:1;stroke:none;stroke-width:1;stroke-miterlimit:4;stroke-dasharray:none;stroke-dashoffset:0;stroke-opacity:1;display:inline"
       id="rect5061"
       width="199.46196"
       height="229.34877"
       x="242.9113"
       y="257.10599" />
    <g
       id="g2517">
      <path
         style="fill:#d40000;fill-opacity:1;fill-rule:evenodd;stroke:none;stroke-width:1px;stroke-linecap:butt;stroke-linejoin:miter;stroke-opacity:1;display:inline"
         d="M 259.99425,384.18544 L 254.65884,379.01676 L 265.32966,375.01521 L 256.82636,342.00236 L 284.00359,349.33855 L 291.50651,335.3331 L 311.18084,357.5084 C 316.20543,359.96847 318.54089,357.03212 318.51702,353.84031 L 308.01293,305.82162 L 324.68609,315.65878 C 326.51097,316.57607 327.91866,316.24184 328.85438,314.49166 L 345.19407,261.80449 L 361.2003,313.15781 C 362.68776,315.26666 364.33438,316.73886 366.70243,315.32532 L 382.37521,305.32142 L 371.70439,354.34049 C 371.47346,357.30754 375.18308,359.51415 379.7075,357.0082 L 398.38143,335.49983 L 405.55089,348.33816 L 433.22832,342.50256 L 425.05848,373.84808 L 435.06236,379.18349 L 426.7258,386.35294 L 416.55517,398.19089 L 263.66234,396.52357 L 259.99425,384.18544 z"
         id="path4959"
         sodipodi:nodetypes="cccccccccccccccccccccccccc"
         inkscape:export-filename="/home/ian/oclug/proof.png"
         inkscape:export-xdpi="82.850311"
         inkscape:export-ydpi="82.850311" />
      <path
         style="fill:#000000;fill-opacity:1;stroke:none;stroke-width:1;stroke-miterlimit:4;stroke-dashoffset:0;stroke-opacity:1;display:inline"
         d="M 256.34631,392.52201 L 259.02901,390.41699 L 260.01441,381.85119 L 272.18581,381.85119 L 274.35332,390.18777 L 277.68794,390.18777 L 279.68873,386.68641 L 279.68873,376.84925 L 282.1897,376.84925 L 284.02374,364.01092 L 285.52433,376.84925 L 287.35838,376.84925 L 287.35838,386.18622 L 290.19281,386.18622 L 292.02686,382.01792 L 297.69574,382.01792 L 301.03037,388.52046 L 385.06305,388.52046 L 385.22977,376.84925 L 387.3973,376.84925 L 388.73115,364.17765 L 390.23174,376.84925 L 392.06577,376.84925 L 392.06577,382.35139 L 398.23483,382.35139 L 400.73582,388.68718 L 400.90255,392.52201 L 420.74362,392.52201 L 423.57804,382.51812 L 429.58039,382.51812 L 431.74787,392.52201 L 431.74787,429.28779 L 256.34631,429.28779 L 256.34631,392.52201 z"
         id="path4961"
         sodipodi:nodetypes="cccccccccccccccccccccccccccccccccc"
         inkscape:export-filename="/home/ian/oclug/proof.png"
         inkscape:export-xdpi="82.850311"
         inkscape:export-ydpi="82.850311" />
      <path
         style="fill:#000000;fill-opacity:1;stroke:none;stroke-width:1;stroke-miterlimit:4;stroke-dashoffset:0;stroke-opacity:1;display:inline"
         d="M 337.54456,332.83212 L 342.54652,326.99651 L 344.38057,292.98328 L 346.04787,292.98328 L 348.04866,326.99651 L 353.38405,332.83212 L 353.38405,394.18933 L 337.54456,394.18933 L 337.54456,332.83212 z"
         id="path4963"
         sodipodi:nodetypes="ccccccccc"
         inkscape:export-filename="/home/ian/oclug/proof.png"
         inkscape:export-xdpi="82.850311"
         inkscape:export-ydpi="82.850311" />
      <path
         style="fill:#000000;fill-opacity:1;fill-rule:evenodd;stroke:none;stroke-width:1px;stroke-linecap:butt;stroke-linejoin:miter;stroke-opacity:1;display:inline"
         d="M 344.54729,293.15002 C 344.86206,292.92691 345.9385,292.64983 346.88153,292.64983 C 347.71519,292.64983 348.54885,292.64983 349.38251,292.64983 C 350.32502,292.64983 351.03261,292.97468 351.71675,293.31675 C 352.47716,293.69696 352.79371,294.02197 353.38407,294.31714 C 354.21168,294.73094 354.81348,295.29974 355.55158,295.48426 C 356.3352,295.68017 356.86127,295.81773 357.71909,295.81773 C 358.58909,295.81773 359.44077,295.84582 360.22006,295.65099 C 361.25627,295.39194 361.05372,295.85233 361.05372,296.98484 C 361.05372,297.90945 361.06831,298.76051 360.88699,299.48582 C 360.70522,300.21288 360.88699,301.23292 360.88699,301.9868 C 360.88699,302.84894 361.33624,303.11687 361.55391,303.98757 C 361.76639,304.83749 362.22084,305.28569 362.22084,306.32181 C 362.22084,307.16452 361.40448,307.15115 360.72025,307.32221 C 359.99319,307.50397 358.97315,307.32221 358.21928,307.32221 C 357.27815,307.32221 356.51874,307.13885 355.88504,306.822 C 355.20563,306.4823 354.28184,305.57792 353.71753,305.15469 C 352.97384,304.59693 352.43605,304.37581 351.55002,304.1543 C 350.77252,303.95993 349.91755,303.98757 349.04904,303.98757 C 348.11582,303.98757 347.44047,304.13962 346.71481,304.32104 C 346.03125,304.49192 345.82737,302.7183 345.71442,302.15352 C 345.52929,301.22793 345.21422,300.71123 345.21422,299.65255 C 345.21422,298.81889 345.21422,297.98524 345.21422,297.15158 C 345.21422,296.32071 345.03873,295.4492 344.88076,294.81733 C 344.70339,294.10788 344.88249,293.988 344.54729,293.15002 z"
         id="path4965"
         inkscape:export-filename="/home/ian/oclug/proof.png"
         inkscape:export-xdpi="82.850311"
         inkscape:export-ydpi="82.850311" />
      <path
         sodipodi:type="arc"
         style="fill:#ffffff;fill-opacity:1;stroke:none;stroke-width:1;stroke-miterlimit:4;stroke-dasharray:none;stroke-dashoffset:0;stroke-opacity:1;display:inline"
         id="path4967"
         sodipodi:cx="269.08795"
         sodipodi:cy="353.10947"
         sodipodi:rx="4.6998534"
         sodipodi:ry="4.6998534"
         d="M 273.78781,353.10947 A 4.6998534,4.6998534 0 1 1 264.3881,353.10947 A 4.6998534,4.6998534 0 1 1 273.78781,353.10947 z"
         transform="matrix(0.9755873,0,0,0.9755873,82.94555,-3.40379)"
         inkscape:export-filename="/home/ian/oclug/proof.png"
         inkscape:export-xdpi="82.850311"
         inkscape:export-ydpi="82.850311" />
      <path
         sodipodi:nodetypes="csssssssssssssssssssssssssssssc"
         id="path5015"
         d="M 330.99261,432.74057 C 330.50014,433.5976 328.86883,435.32952 331.09771,435.91483 C 332.52446,436.28949 333.38083,436.09979 334.26007,435.63801 C 335.42102,435.02826 334.42545,434.6783 336.31603,434.6783 C 338.19565,434.6783 338.31659,436.93164 339.70654,435.47158 C 340.63138,434.5001 339.06104,433.2064 338.38889,432.42658 C 337.89136,431.84933 339.30161,430.45358 339.49582,430.04561 C 340.14985,428.67159 340.26898,427.22238 340.26898,425.34023 C 340.26898,424.48951 340.83208,422.70112 341.63892,422.62752 C 342.55677,422.54378 344.71392,423.64264 345.06481,423.73479 C 345.78707,423.92445 343.53569,420.66158 343.22011,420.41296 C 342.37978,419.75094 342.08808,417.2043 341.63892,416.26067 C 341.10731,415.14382 340.39128,414.39648 339.79421,413.76931 C 338.83275,412.75936 338.80247,412.09365 338.47657,410.72429 C 338.14864,409.34649 337.95314,408.23674 337.1589,407.40244 C 335.97928,406.16335 335.62109,405.73164 334.80455,404.87391 C 333.98359,404.01155 334.17189,401.75657 334.17189,400.46367 C 334.17189,397.82901 332.8409,401.56883 332.67889,402.41972 C 332.39099,403.93189 332.44556,404.66345 332.01135,405.57566 C 331.43998,406.77605 330.74249,407.87191 330.30712,408.78655 C 329.66651,410.13238 329.55536,411.11481 329.25299,412.38519 C 329.0089,413.41083 328.98947,414.85754 328.98947,416.26067 C 328.98947,417.54683 328.43824,418.5006 327.67183,419.30569 C 326.89953,420.11692 326.20647,421.55369 325.8271,422.35069 C 325.28757,423.48418 324.53452,423.90633 324.24593,425.11888 C 323.88597,426.63129 323.25801,427.60889 322.92827,428.99435 C 322.45961,430.96353 324.46704,430.55665 324.77299,429.27118 C 325.04701,428.11977 326.2425,426.73761 326.6177,425.94934 C 327.03295,425.07696 328.38797,424.2898 329.30581,424.04876 C 330.29155,423.78991 330.20202,427.49176 330.20202,428.31146 C 330.20202,430.01795 330.67164,431.05476 330.99261,432.74057 z"
         style="fill:#4488bd;fill-opacity:1;fill-rule:evenodd;stroke:none;stroke-width:1px;stroke-linecap:butt;stroke-linejoin:miter;stroke-opacity:1;display:inline"
         inkscape:export-filename="/home/ian/oclug/proof.png"
         inkscape:export-xdpi="82.850311"
         inkscape:export-ydpi="82.850311" />
      <path
         sodipodi:nodetypes="csssssssssssssssssssssssssssssc"
         id="path5017"
         d="M 376.33536,434.43643 C 376.33536,435.85508 374.51636,435.08082 373.34834,435.71525 C 372.32402,436.27163 376.14007,437.69017 376.24717,437.71927 C 377.58534,438.0827 378.71665,437.12015 379.67306,436.86039 C 381.10604,436.47123 381.7003,436.39809 382.30837,437.71927 C 383.05238,439.33579 383.94532,439.91243 385.55788,439.0365 C 385.59818,439.01462 384.40081,435.78393 384.41661,435.71525 C 384.78855,434.09899 385.12434,433.21246 385.47073,431.70725 C 385.81713,430.20205 386.26133,429.04725 386.26133,427.41295 C 386.26133,425.67287 386.11917,424.79118 385.73426,423.11864 C 385.48315,422.02748 385.49466,420.4381 385.73426,419.39693 C 385.76024,419.28406 387.2658,421.67373 389.42369,422.25979 C 390.64386,422.59117 388.40498,419.76014 387.8425,418.53805 C 387.24171,417.23269 386.61661,416.25095 385.2072,415.10262 C 384.2162,414.29518 383.47353,413.58113 383.09895,411.95347 C 382.78449,410.587 383.1341,408.95698 382.83543,407.65917 C 382.47732,406.10305 382.29102,404.28143 381.09581,403.63223 C 380.07784,403.07928 378.45372,402.6128 377.82836,401.93344 C 376.96211,400.99238 375.58276,400.78828 374.40246,400.78828 C 372.77136,400.78828 374.28554,400.90522 375.19307,402.21972 C 375.92643,403.282 376.70552,404.72443 377.23053,405.86515 C 377.70851,406.90366 376.77423,408.10133 376.77423,409.66317 C 376.77423,411.21662 375.96098,412.00271 375.45658,413.0986 C 374.9389,414.22339 374.75927,414.98357 374.40246,416.53406 C 374.11517,417.78246 374.40246,419.53392 374.40246,420.82835 C 374.40246,422.24635 374.33223,422.48921 374.33223,423.90176 C 374.33223,425.10384 373.77488,425.48305 373.17195,426.42097 C 372.22303,427.89715 371.63174,429.70325 372.29423,429.70325 C 373.03723,429.70325 374.08642,428.30031 374.66599,427.98551 C 376.4252,427.02997 375.61502,428.86061 375.61502,430.44735 C 375.61502,431.99117 376.33536,432.67266 376.33536,434.43643 z"
         style="fill:#4488bd;fill-opacity:1;fill-rule:evenodd;stroke:none;stroke-width:1px;stroke-linecap:butt;stroke-linejoin:miter;stroke-opacity:1;display:inline"
         inkscape:export-filename="/home/ian/oclug/proof.png"
         inkscape:export-xdpi="82.850311"
         inkscape:export-ydpi="82.850311" />
      <path
         sodipodi:nodetypes="csssssssssssssssssssssssssssssc"
         id="path5019"
         d="M 405.08739,433.55824 C 405.08739,435.15479 402.82835,436.26887 405.87796,436.26887 C 407.57153,436.26887 408.42331,436.07049 409.30386,435.06415 C 409.96594,434.30748 409.89889,432.34398 410.09444,431.45 C 410.3456,430.30191 412.46622,431.88775 412.46622,433.25707 C 412.46622,434.06733 411.11743,435.2065 410.88505,436.26887 C 410.41058,438.43786 413.70445,436.31426 413.78388,436.26887 C 414.7128,435.73804 414.62358,433.93614 414.838,432.95589 C 415.19304,431.33287 416.08739,430.55734 416.41918,429.04056 C 416.72562,427.63974 416.41918,425.66401 416.41918,424.22167 C 416.41918,422.71577 416.41918,421.20989 416.41918,419.70398 C 416.41918,417.51313 417.29087,418.88013 419.15958,418.88013 C 420.25758,418.88013 417.99093,416.34791 417.73683,415.1863 C 417.40367,413.66328 416.38584,412.43757 415.62859,411.57213 C 414.65704,410.46178 413.9484,409.23758 413.52035,408.25914 C 412.86078,406.75158 412.14137,406.01073 411.67563,404.94617 C 411.08308,403.59178 410.05094,402.82549 409.04033,402.53674 C 407.52826,402.10471 407.011,401.8893 405.87796,402.53674 C 404.93896,403.07333 404.39963,404.40992 404.03325,405.24736 C 403.39772,406.70002 403.07061,407.55225 402.18855,408.56034 C 401.42022,409.43843 404.29679,407.95798 405.35091,407.6568 C 406.62922,407.29157 405.35091,410.66858 405.35091,412.1745 C 405.35091,413.69738 403.19711,412.42895 402.18855,412.7171 C 400.82371,413.10706 400.48574,412.97192 400.15053,414.50426 C 400.02761,415.06627 403.56144,415.84001 403.96302,415.74822 C 404.84577,415.54645 405.52077,417.08666 405.66726,417.75627 C 405.96182,419.10286 406.02895,420.192 406.29993,421.4308 C 406.51854,422.43014 406.81477,425.28967 407.02029,426.22915 C 407.30757,427.54249 407.72269,428.58232 407.72269,429.94408 C 407.72269,431.31747 406.74629,432.47704 406.40503,433.25707 C 406.20472,433.71493 405.52659,433.45786 405.08739,433.55824 z"
         style="fill:#4488bd;fill-opacity:1;fill-rule:evenodd;stroke:none;stroke-width:1px;stroke-linecap:butt;stroke-linejoin:miter;stroke-opacity:1;display:inline"
         inkscape:export-filename="/home/ian/oclug/proof.png"
         inkscape:export-xdpi="82.850311"
         inkscape:export-ydpi="82.850311" />
      <path
         sodipodi:nodetypes="csssssssssssssssssssssssssc"
         id="path5021"
         d="M 390.03962,433.52382 C 389.10636,435.61847 388.09565,435.44416 388.45843,437.07267 C 388.87593,438.94673 391.72731,436.71448 391.77871,436.59912 C 392.47071,435.04596 393.51381,434.85936 394.11561,435.53471 C 395.11937,436.66114 396.11223,436.63226 397.68198,437.07267 C 399.6932,437.63692 398.39653,434.83183 398.20906,434.41104 C 397.59182,433.02569 396.9822,433.41198 397.41847,431.45368 C 397.6873,430.2469 398.23903,429.34988 398.99964,428.49631 C 399.82087,427.57471 400.0243,426.5584 400.31729,425.24321 C 400.6479,423.75918 400.95605,423.0829 400.58083,421.39865 C 400.30083,420.14183 399.76519,418.62456 399.52671,417.55407 C 399.20762,416.12179 399.26318,414.81748 399.26318,413.41377 C 399.26318,412.73819 397.94077,411.33293 397.68198,410.75215 C 397.11924,409.48908 396.8914,408.88927 396.8914,407.2033 C 396.8914,405.4932 398.39742,406.02038 399.79023,406.02038 C 401.89779,406.02038 400.12954,404.6267 399.52671,403.95021 C 398.83109,403.16958 397.38587,403.05387 396.36435,402.76728 C 395.25924,402.45724 394.33063,401.89678 392.93846,401.58432 C 391.53914,401.27026 391.10453,402.74308 390.56668,403.95021 C 389.9604,405.31097 390.03962,406.82668 390.03962,408.38625 C 390.03962,409.91352 389.51255,411.22962 389.51255,412.8223 C 389.51255,413.96393 388.63622,415.57308 388.45843,416.37113 C 388.11419,417.91638 387.93138,418.81343 387.93138,420.51143 C 387.93138,421.50971 387.66784,423.22566 387.66784,424.65174 C 387.66784,426.14928 387.54479,425.44616 387.54479,427.13674 C 387.54479,428.80828 388.63684,430.8685 389.12598,431.96632 C 389.37752,432.5309 389.68825,433.03093 390.03962,433.52382 z"
         style="fill:#4488bd;fill-opacity:1;fill-rule:evenodd;stroke:none;stroke-width:1px;stroke-linecap:butt;stroke-linejoin:miter;stroke-opacity:1;display:inline"
         inkscape:export-filename="/home/ian/oclug/proof.png"
         inkscape:export-xdpi="82.850311"
         inkscape:export-ydpi="82.850311" />
      <path
         style="fill:#4488bd;fill-opacity:1;fill-rule:evenodd;stroke:none;stroke-width:1px;stroke-linecap:butt;stroke-linejoin:miter;stroke-opacity:1;display:inline"
         d="M 423.22575,433.55928 C 423.22575,434.86517 421.40675,434.15244 420.23874,434.73644 C 419.21442,435.2486 423.03047,436.55438 423.13758,436.58117 C 424.47575,436.9157 425.60704,436.02969 426.56347,435.79056 C 427.99645,435.43232 428.59069,435.36501 429.19876,436.58117 C 429.94278,438.0692 430.83571,438.59999 432.44827,437.79371 C 432.48856,437.77357 431.29119,434.79966 431.30701,434.73644 C 431.67895,433.24866 432.01474,432.43259 432.36112,431.04703 C 432.70751,429.66147 433.15172,428.59847 433.15172,427.09407 C 433.15172,425.49232 433.00955,424.68071 432.62465,423.14111 C 432.37356,422.13669 432.38505,420.67365 432.62465,419.71523 C 432.65063,419.61133 434.15619,421.81106 436.31408,422.35053 C 437.53426,422.65556 435.29537,420.04957 434.7329,418.92463 C 434.13211,417.72302 433.50701,416.81933 432.09759,415.76226 C 431.10659,415.01901 430.36394,414.36173 429.98935,412.86343 C 429.6749,411.6056 430.02449,410.10515 429.72582,408.91048 C 429.36771,407.47806 429.18141,405.80124 427.98621,405.20363 C 426.96824,404.69465 425.34411,404.26524 424.71875,403.63987 C 423.85251,402.77363 422.47314,402.58575 421.29286,402.58575 C 419.66175,402.58575 421.17593,402.69338 422.08345,403.90341 C 422.81683,404.88124 423.59592,406.20903 424.12093,407.25906 C 424.59891,408.21504 423.66463,409.3175 423.66463,410.75518 C 423.66463,412.18516 422.85138,412.90875 422.34699,413.91755 C 421.82929,414.95293 421.64967,415.65268 421.29286,417.07992 C 421.00557,418.22909 421.29286,419.84134 421.29286,421.03287 C 421.29286,422.33816 421.22261,422.5617 421.22261,423.86197 C 421.22261,424.96852 420.66528,425.31757 420.06235,426.18095 C 419.11341,427.53978 418.52213,429.20231 419.18462,429.20231 C 419.92763,429.20231 420.97682,427.91091 421.55638,427.62112 C 423.31558,426.74153 422.50541,428.42667 422.50541,429.88728 C 422.50541,431.30839 423.22575,431.9357 423.22575,433.55928 z"
         id="path5025"
         sodipodi:nodetypes="csssssssssssssssssssssssssssssc"
         inkscape:export-filename="/home/ian/oclug/proof.png"
         inkscape:export-xdpi="82.850311"
         inkscape:export-ydpi="82.850311" />
      <path
         style="fill:#4488bd;fill-opacity:1;fill-rule:evenodd;stroke:none;stroke-width:1px;stroke-linecap:butt;stroke-linejoin:miter;stroke-opacity:1;display:inline"
         d="M 370.14603,433.12916 C 370.14603,434.74567 372.40505,435.87367 369.35545,435.87367 C 367.66189,435.87367 366.8101,435.67283 365.92955,434.6539 C 365.26747,433.88777 365.33453,431.89973 365.13897,430.99456 C 364.88781,429.83213 362.76719,431.4378 362.76719,432.82422 C 362.76719,433.64463 364.11599,434.79802 364.34836,435.87367 C 364.82283,438.06978 361.52896,435.91963 361.44953,435.87367 C 360.52061,435.33622 360.60984,433.51179 360.39542,432.51928 C 360.04037,430.87598 359.14603,430.09075 358.81423,428.555 C 358.50781,427.13667 358.81423,425.13625 358.81423,423.67588 C 358.81423,422.15117 358.81423,420.62645 358.81423,419.10172 C 358.81423,416.88346 357.94254,418.26756 356.07385,418.26756 C 354.97583,418.26756 357.24249,415.7037 357.49659,414.52755 C 357.82975,412.9855 358.84757,411.74448 359.60483,410.86821 C 360.57637,409.74398 361.28502,408.50447 361.71307,407.51382 C 362.37263,405.9874 363.09204,405.2373 363.55777,404.15943 C 364.15033,402.7881 365.18248,402.01223 366.19308,401.71988 C 367.70515,401.28246 368.22242,401.06434 369.35545,401.71988 C 370.29446,402.26316 370.83378,403.61649 371.20015,404.46437 C 371.8357,405.93521 372.16281,406.79808 373.04486,407.81877 C 373.81319,408.70784 370.93663,407.20887 369.8825,406.90393 C 368.6042,406.53415 369.8825,409.95338 369.8825,411.47811 C 369.8825,413.02003 372.0363,411.73573 373.04486,412.02749 C 374.4097,412.42234 374.74768,412.2855 375.08288,413.83699 C 375.20582,414.40602 371.67198,415.18944 371.2704,415.09652 C 370.38765,414.89221 369.71265,416.45168 369.56615,417.12967 C 369.27159,418.49309 369.20445,419.59585 368.93349,420.85013 C 368.71488,421.86196 368.41864,424.75722 368.21313,425.70846 C 367.92584,427.03821 367.51073,428.09104 367.51073,429.46984 C 367.51073,430.86038 368.48712,432.03444 368.82839,432.82422 C 369.0287,433.28782 369.70682,433.02753 370.14603,433.12916 z"
         id="path5027"
         sodipodi:nodetypes="csssssssssssssssssssssssssssssc"
         inkscape:export-filename="/home/ian/oclug/proof.png"
         inkscape:export-xdpi="82.850311"
         inkscape:export-ydpi="82.850311" />
      <path
         style="fill:#4488bd;fill-opacity:1;fill-rule:evenodd;stroke:none;stroke-width:1px;stroke-linecap:butt;stroke-linejoin:miter;stroke-opacity:1;display:inline"
         d="M 354.39447,434.01476 C 355.32775,436.08405 356.33845,435.91185 355.97567,437.52067 C 355.55816,439.37204 352.70679,437.1668 352.65539,437.05284 C 351.96338,435.51848 350.92029,435.33413 350.31848,436.00131 C 349.31473,437.11411 348.32186,437.08558 346.7521,437.52067 C 344.74091,438.07808 346.03756,435.30693 346.22504,434.89123 C 346.84229,433.52264 347.4519,433.90426 347.01564,431.96966 C 346.7468,430.77748 346.19507,429.89132 345.43445,429.04807 C 344.61322,428.13762 344.4098,427.13362 344.11681,425.83434 C 343.78621,424.36826 343.47806,423.70016 343.85327,422.03629 C 344.13327,420.79468 344.66891,419.29578 344.90739,418.23823 C 345.22647,416.82329 345.17092,415.53476 345.17092,414.14803 C 345.17092,413.48063 346.49333,412.09236 346.7521,411.51862 C 347.31486,410.27083 347.5427,409.67828 347.5427,408.01272 C 347.5427,406.32331 346.03667,406.8441 344.64386,406.8441 C 342.53631,406.8441 344.30457,405.46729 344.90739,404.79899 C 345.60301,404.0278 347.04822,403.91349 348.06975,403.63036 C 349.17486,403.32408 350.10347,402.7704 351.49564,402.46173 C 352.89496,402.15147 353.32957,403.60645 353.86742,404.79899 C 354.4737,406.14328 354.39447,407.64065 354.39447,409.18136 C 354.39447,410.69013 354.92154,411.99032 354.92154,413.56371 C 354.92154,414.69154 355.79788,416.28121 355.97567,417.06961 C 356.31991,418.59616 356.50272,419.48236 356.50272,421.15981 C 356.50272,422.146 356.76625,423.84119 356.76625,425.25002 C 356.76625,426.72944 356.88929,426.03483 356.88929,427.70495 C 356.88929,429.35627 355.79726,431.39156 355.30812,432.4761 C 355.05657,433.03384 354.74585,433.52783 354.39447,434.01476 z"
         id="path5029"
         sodipodi:nodetypes="csssssssssssssssssssssssssc"
         inkscape:export-filename="/home/ian/oclug/proof.png"
         inkscape:export-xdpi="82.850311"
         inkscape:export-ydpi="82.850311" />
      <path
         sodipodi:nodetypes="csssssssssssssssssssssssssc"
         id="path5031"
         d="M 316.02371,433.45401 C 315.09044,435.57399 314.07973,435.39757 314.44251,437.04579 C 314.86002,438.94253 317.7114,436.68327 317.76279,436.56651 C 318.4548,434.99456 319.49789,434.8057 320.09969,435.48922 C 321.10345,436.62928 322.09631,436.60005 323.66607,437.04579 C 325.67728,437.61687 324.38062,434.77784 324.19314,434.35196 C 323.5759,432.94983 322.96628,433.34079 323.40255,431.35881 C 323.67138,430.13743 324.22311,429.22956 324.98372,428.36566 C 325.80495,427.4329 326.00838,426.40432 326.30137,425.07321 C 326.63198,423.5712 326.94013,422.88675 326.56491,421.18211 C 326.28491,419.91008 325.74927,418.37446 325.5108,417.29101 C 325.1917,415.8414 325.24726,414.52131 325.24726,413.10061 C 325.24726,412.41685 323.92485,410.99459 323.66607,410.40678 C 323.10332,409.12844 322.87548,408.52135 322.87548,406.81501 C 322.87548,405.08419 324.38151,405.61776 325.77431,405.61776 C 327.88187,405.61776 326.11362,404.20722 325.5108,403.52255 C 324.81518,402.73247 323.36996,402.61536 322.34843,402.3253 C 321.24332,402.01151 320.31471,401.44428 318.92254,401.12803 C 317.52322,400.81017 317.08862,402.30079 316.55076,403.52255 C 315.94448,404.89977 316.02371,406.43384 316.02371,408.01227 C 316.02371,409.55801 315.49664,410.89005 315.49664,412.50198 C 315.49664,413.65744 314.6203,415.28606 314.44251,416.09376 C 314.09827,417.65772 313.91546,418.56562 313.91546,420.28416 C 313.91546,421.29451 313.65193,423.03123 313.65193,424.47457 C 313.65193,425.99023 313.52888,425.2786 313.52888,426.98963 C 313.52888,428.68141 314.62092,430.76655 315.11006,431.87765 C 315.3616,432.44906 315.67233,432.95514 316.02371,433.45401 z"
         style="fill:#4488bd;fill-opacity:1;fill-rule:evenodd;stroke:none;stroke-width:1px;stroke-linecap:butt;stroke-linejoin:miter;stroke-opacity:1;display:inline"
         inkscape:export-filename="/home/ian/oclug/proof.png"
         inkscape:export-xdpi="82.850311"
         inkscape:export-ydpi="82.850311" />
      <path
         style="fill:#4488bd;fill-opacity:1;fill-rule:evenodd;stroke:none;stroke-width:1px;stroke-linecap:butt;stroke-linejoin:miter;stroke-opacity:1;display:inline"
         d="M 300.62485,432.68576 C 300.62485,434.32223 298.36582,435.46416 301.41545,435.46416 C 303.10901,435.46416 303.96078,435.26083 304.84133,434.22932 C 305.50341,433.45374 305.43636,431.44116 305.63193,430.52482 C 305.88307,429.34802 308.00369,430.97352 308.00369,432.37705 C 308.00369,433.20758 306.65491,434.37524 306.42252,435.46416 C 305.94805,437.68738 309.24192,435.51068 309.32135,435.46416 C 310.25029,434.92006 310.16104,433.07312 310.37547,432.06836 C 310.7305,430.40476 311.62485,429.60984 311.95666,428.05514 C 312.26308,426.6193 311.95666,424.59416 311.95666,423.11578 C 311.95666,421.57222 311.95666,420.02868 311.95666,418.48513 C 311.95666,416.2395 312.82835,417.64067 314.69704,417.64067 C 315.79505,417.64067 313.5284,415.04516 313.2743,413.85451 C 312.94114,412.2934 311.92331,411.03706 311.16605,410.14998 C 310.1945,409.01187 309.48588,407.75706 309.05782,406.75416 C 308.39825,405.2089 307.67884,404.44953 307.21311,403.35836 C 306.62055,401.9701 305.58841,401.18466 304.5778,400.8887 C 303.06572,400.44587 302.54847,400.22506 301.41545,400.8887 C 300.47643,401.4387 299.93709,402.8087 299.57072,403.66707 C 298.93519,405.15605 298.60808,406.02959 297.72602,407.06289 C 296.95769,407.96293 299.83425,406.44547 300.88839,406.13675 C 302.1667,405.76239 300.88839,409.22383 300.88839,410.76741 C 300.88839,412.32836 298.73458,411.0282 297.72602,411.32357 C 296.36118,411.72329 296.02321,411.58476 295.68802,413.1554 C 295.56507,413.73147 299.09891,414.52456 299.5005,414.43048 C 300.38324,414.22365 301.05825,415.80237 301.20472,416.48873 C 301.49929,417.86898 301.56642,418.98536 301.8374,420.25512 C 302.05601,421.27945 302.35224,424.21047 302.55775,425.17344 C 302.84504,426.5196 303.26016,427.58543 303.26016,428.98126 C 303.26016,430.38898 302.28376,431.57753 301.9425,432.37705 C 301.74219,432.84637 301.06407,432.58288 300.62485,432.68576 z"
         id="path5033"
         sodipodi:nodetypes="csssssssssssssssssssssssssssssc"
         inkscape:export-filename="/home/ian/oclug/proof.png"
         inkscape:export-xdpi="82.850311"
         inkscape:export-ydpi="82.850311" />
      <path
         style="fill:#4488bd;fill-opacity:1;fill-rule:evenodd;stroke:none;stroke-width:1px;stroke-linecap:butt;stroke-linejoin:miter;stroke-opacity:1;display:inline"
         d="M 294.66229,432.30553 C 294.66229,433.78861 296.48129,432.97917 297.64931,433.64242 C 298.67363,434.22408 294.85758,435.70704 294.75047,435.73745 C 293.41229,436.11738 292.281,435.11114 291.32459,434.83958 C 289.89161,434.43273 289.29736,434.35628 288.68928,435.73745 C 287.94527,437.42742 287.05233,438.03023 285.43977,437.11454 C 285.39947,437.09166 286.59684,433.71422 286.58104,433.64242 C 286.20909,431.95275 285.87331,431.02594 285.52692,429.45236 C 285.18053,427.87878 284.73632,426.67155 284.73632,424.96299 C 284.73632,423.14389 284.87849,422.22216 285.2634,420.47365 C 285.5145,419.33292 285.503,417.67136 285.2634,416.58289 C 285.23741,416.46491 283.73185,418.96311 281.57396,419.57578 C 280.35379,419.92222 282.59266,416.96259 283.15516,415.685 C 283.75594,414.32035 284.38103,413.29402 285.79045,412.09351 C 286.78145,411.24941 287.52412,410.50294 287.89869,408.80133 C 288.21315,407.3728 287.86355,405.66874 288.16222,404.31199 C 288.52033,402.68518 288.70664,400.78083 289.90184,400.10213 C 290.91981,399.52408 292.54392,399.03639 293.16929,398.32618 C 294.03554,397.34238 295.41489,397.12901 296.5952,397.12901 C 298.22629,397.12901 296.7121,397.25124 295.80459,398.62546 C 295.07122,399.73599 294.29213,401.24395 293.76712,402.43648 C 293.28914,403.52217 294.22342,404.77423 294.22342,406.407 C 294.22342,408.03102 295.03667,408.8528 295.54107,409.99849 C 296.05875,411.17436 296.23838,411.96907 296.5952,413.58999 C 296.88248,414.89509 296.5952,416.72609 296.5952,418.07933 C 296.5952,419.56174 296.66542,419.8156 296.66542,421.29233 C 296.66542,422.54902 297.22276,422.94545 297.8257,423.92597 C 298.77462,425.4692 299.3659,427.35732 298.70342,427.35732 C 297.96041,427.35732 296.91123,425.89068 296.33166,425.56158 C 294.57245,424.56261 295.38263,426.47643 295.38263,428.13524 C 295.38263,429.74918 294.66229,430.46163 294.66229,432.30553 z"
         id="path5035"
         sodipodi:nodetypes="csssssssssssssssssssssssssssssc"
         inkscape:export-filename="/home/ian/oclug/proof.png"
         inkscape:export-xdpi="82.850311"
         inkscape:export-ydpi="82.850311" />
      <path
         style="fill:#4488bd;fill-opacity:1;fill-rule:evenodd;stroke:none;stroke-width:1px;stroke-linecap:butt;stroke-linejoin:miter;stroke-opacity:1;display:inline"
         d="M 271.97865,432.46206 C 271.48619,433.34994 269.85488,435.14424 272.08375,435.75062 C 273.5105,436.13879 274.36687,435.94226 275.24612,435.46384 C 276.40707,434.83213 275.41149,434.46958 277.30207,434.46958 C 279.18169,434.46958 279.30263,436.80403 280.69259,435.29143 C 281.61743,434.28495 280.04709,432.94468 279.37494,432.13678 C 278.87741,431.53875 280.28766,430.09276 280.48186,429.67007 C 281.1359,428.2466 281.25503,426.7452 281.25503,424.7953 C 281.25503,423.91394 281.81812,422.06117 282.62497,421.98491 C 283.54282,421.89817 285.69997,423.03659 286.05086,423.13205 C 286.77312,423.32854 284.52173,419.9482 284.20615,419.69062 C 283.36582,419.00477 283.07413,416.36644 282.62497,415.38883 C 282.09336,414.23178 281.37733,413.45753 280.78025,412.80776 C 279.81879,411.76146 279.78851,411.07178 279.46261,409.65311 C 279.13469,408.22571 278.93919,407.07601 278.14495,406.21168 C 276.96533,404.92796 276.60713,404.48071 275.7906,403.59211 C 274.96964,402.69868 275.15793,400.36252 275.15793,399.02307 C 275.15793,396.29356 273.82694,400.16803 273.66493,401.04954 C 273.37703,402.61616 273.43161,403.37405 272.99739,404.31914 C 272.42603,405.56273 271.72853,406.69804 271.29317,407.64562 C 270.65255,409.03989 270.5414,410.05771 270.23904,411.37383 C 269.99495,412.43638 269.97551,413.93519 269.97551,415.38883 C 269.97551,416.72129 269.42429,417.70941 268.65786,418.54348 C 267.88557,419.38392 267.19252,420.87241 266.81315,421.69813 C 266.27362,422.87241 265.52056,423.30975 265.23197,424.56599 C 264.87201,426.13283 264.24405,427.14566 263.91432,428.58099 C 263.44565,430.62106 265.45308,430.19954 265.75903,428.86776 C 266.03306,427.67492 267.22853,426.24298 267.60374,425.42634 C 268.019,424.52256 269.37401,423.70705 270.29185,423.45732 C 271.27758,423.18914 271.18807,427.0243 271.18807,427.87349 C 271.18807,429.64141 271.65768,430.71557 271.97865,432.46206 z"
         id="path5037"
         sodipodi:nodetypes="csssssssssssssssssssssssssssssc"
         inkscape:export-filename="/home/ian/oclug/proof.png"
         inkscape:export-xdpi="82.850311"
         inkscape:export-ydpi="82.850311" />
      <path
         sodipodi:nodetypes="csssssssssssssssssssssssssssssc"
         id="path5041"
         d="M 265.05215,431.65523 C 265.05215,433.27173 267.61928,434.39972 264.15372,434.39972 C 262.22918,434.39972 261.26123,434.19889 260.26059,433.17996 C 259.5082,432.41384 259.5844,430.4258 259.36217,429.52062 C 259.07676,428.35819 256.66691,429.96386 256.66691,431.35028 C 256.66691,432.17068 258.19965,433.32409 258.46373,434.39972 C 259.00291,436.59586 255.2598,434.4457 255.16954,434.39972 C 254.1139,433.86228 254.21532,432.03786 253.97165,431.04534 C 253.56818,429.40203 252.55186,428.6168 252.1748,427.08105 C 251.82658,425.66273 252.1748,423.66231 252.1748,422.20194 C 252.1748,420.67723 252.1748,419.15251 252.1748,417.62778 C 252.1748,415.40952 251.18421,416.79361 249.06065,416.79361 C 247.81288,416.79361 250.38869,414.22977 250.67744,413.05362 C 251.05605,411.51157 252.21269,410.27054 253.07323,409.39427 C 254.17728,408.27004 254.98258,407.03053 255.46901,406.03989 C 256.21854,404.51346 257.03606,403.76334 257.56531,402.6855 C 258.23868,401.31417 259.41161,400.5383 260.56005,400.24594 C 262.27836,399.80852 262.86617,399.59041 264.15372,400.24594 C 265.22082,400.78924 265.8337,402.14253 266.25004,402.99044 C 266.97226,404.46127 267.34399,405.32415 268.34635,406.34485 C 269.21947,407.23389 265.95058,405.73493 264.75267,405.42999 C 263.30001,405.0602 264.75267,408.47944 264.75267,410.00418 C 264.75267,411.54609 267.20021,410.2618 268.34635,410.55355 C 269.89733,410.94839 270.28141,410.81157 270.66231,412.36305 C 270.80202,412.93208 266.78621,413.71551 266.32985,413.62256 C 265.32672,413.41828 264.55964,414.97772 264.39318,415.65572 C 264.05844,417.01915 263.98215,418.1219 263.67422,419.37618 C 263.42579,420.38803 263.08916,423.28329 262.85562,424.23451 C 262.52914,425.56427 262.05741,426.6171 262.05741,427.9959 C 262.05741,429.38644 263.16698,430.56049 263.55479,431.35028 C 263.78241,431.81388 264.55304,431.55359 265.05215,431.65523 z"
         style="fill:#4488bd;fill-opacity:1;fill-rule:evenodd;stroke:none;stroke-width:1px;stroke-linecap:butt;stroke-linejoin:miter;stroke-opacity:1;display:inline"
         inkscape:export-filename="/home/ian/oclug/proof.png"
         inkscape:export-xdpi="82.850311"
         inkscape:export-ydpi="82.850311" />
      <text
         xml:space="preserve"
         style="font-size:21.61998367px;font-style:normal;font-variant:normal;font-weight:bold;font-stretch:normal;text-align:start;line-height:125%;writing-mode:lr-tb;text-anchor:start;fill:#000000;fill-opacity:1;stroke:none;stroke-width:1px;stroke-linecap:butt;stroke-linejoin:miter;stroke-opacity:1;display:inline;font-family:Bitstream Vera Sans"
         x="267.19278"
         y="437.04605"
         id="text5043"
         transform="scale(0.9554129,1.0466679)"
         sodipodi:linespacing="125%"
         inkscape:export-filename="/home/ian/oclug/proof.png"
         inkscape:export-xdpi="82.850311"
         inkscape:export-ydpi="82.850311"><tspan
           sodipodi:role="line"
           id="tspan5045"
           x="267.19278"
           y="437.04605">Ottawa Canada</tspan></text>
      <text
         inkscape:export-ydpi="82.850311"
         inkscape:export-xdpi="82.850311"
         inkscape:export-filename="/home/ian/oclug/proof.png"
         sodipodi:linespacing="125%"
         transform="scale(1.0293551,0.9714821)"
         id="text5049"
         y="486.62842"
         x="247.43465"
         style="font-size:16.67711639px;font-style:normal;font-variant:normal;font-weight:bold;font-stretch:normal;text-align:start;line-height:125%;writing-mode:lr-tb;text-anchor:start;fill:#000000;fill-opacity:1;stroke:none;stroke-width:1px;stroke-linecap:butt;stroke-linejoin:miter;stroke-opacity:1;display:inline;font-family:Bitstream Vera Sans"
         xml:space="preserve"><tspan
           y="486.62842"
           x="247.43465"
           id="tspan5051"
           sodipodi:role="line">Linux Users Group</tspan></text>
    </g>
  </g>
</svg>
